<?xml version="1.0" encoding="iso-8859-1"?>
<!-- Generator: Adobe Illustrator 15.0.2, SVG Export Plug-In . SVG Version: 6.00 Build 0)  -->
<!DOCTYPE svg PUBLIC "-//W3C//DTD SVG 1.1//EN" "http://www.w3.org/Graphics/SVG/1.1/DTD/svg11.dtd">
<svg version="1.1" xmlns="http://www.w3.org/2000/svg" xmlns:xlink="http://www.w3.org/1999/xlink" x="0px" y="0px" width="73.75px"
	 height="96.334px" viewBox="0 0 73.75 96.334" style="enable-background:new 0 0 73.75 96.334;" xml:space="preserve">
<g id="Layer_2">
	<g id="XMLID_2_">
		<path style="fill:#3E4599;" d="M21.189,34.635c1.088,0.799,6.822-0.493,7.243-0.393C27.039,33.532,22.002,34.983,21.189,34.635z
			 M71.973,47.827c0.247,15.951,1.335,28.549,0.348,48.418c-3.918,0.755-8.244,0.348-12.54,0.348
			c-14.339,0-30.45-0.348-46.328-0.348c-3.555,0-7.561,0.769-10.798-1.046c0.712-23.452-0.958-57.387-0.697-83.598
			C2.003,7.596,1.451,2.748,3.004,1.5c20.783,0,41.566,0,62.351,0c0.494,0.581,3.353,0.581,3.831,0c0.349,0,0.697,0,1.046,0
			c1.93,1.045,1.306,3.106,1.393,4.876C72.205,18.278,71.77,34.605,71.973,47.827z M70.231,76.739
			c0.174-9.347,0.188-18.477-0.349-29.607c-3.919-0.19-6.416-0.16-10.102,0.348c-0.173,10.449-0.188,23.004,0.349,32.395
			c0.014,0.581,0.972,0.188,1.045,0.697c-2.25,1.856-0.813,4.338-1.045,7.663c1.059-0.218,3.003,0.45,3.483-0.35
			c-0.247-1.031-2.453-0.087-2.438-1.394c0.986-0.521,2.758-0.26,2.09-2.438c-0.132-0.435-2.541,0.522-2.788-0.696
			c0.596-1.146,3.121,0.682,2.788-0.697c0.754-2.003-2.09-1.567-1.046-2.786c2.67,0.537,5.269-0.929,7.664,0.697
			c-0.841,0.536-2.453,0.333-2.438,1.74c0.639,0.77,1.437,1.147,2.438,0.698c0.697-1.045,0.203-3.28,0.349-4.879
			c-1.161-0.536-3.092-0.289-4.877-0.348c-1.887-0.058-4.18,0.626-4.877-0.696C63.715,76.217,66.965,77.132,70.231,76.739z
			 M70.231,86.144c0.014-1.293-0.16-2.396-1.394-2.438c-0.058,0.407-0.551,0.378-1.046,0.349c-0.144,1.495-1.161,3.526-0.348,4.877
			c1.016-0.377,2.366-0.435,2.438-1.742c-0.653-0.16-2.091,0.479-1.742-0.697C68.997,86.535,69.825,86.55,70.231,86.144z
			 M69.883,46.086c0-5.108,0-10.218,0-15.326c-3.759-0.16-6.575,0.624-10.45,0.349c-0.755,1.683-0.755,4.121-0.697,6.617
			c1.655-0.13,2.902,0.116,4.18,0.349c0.856-0.886-0.159-3.642,0.697-4.527c0.813,0,1.626,0,2.438,0
			c0.464,1.044,0.363,2.67,0.348,4.179c1.35,0.045,3.207-0.421,2.786,1.394c-3.831-0.086-6.11-0.362-10.102,0.349
			c0.19,2.031,0.523,3.904,0.349,6.271c1.277,0.435,2.511,0.158,3.832,0c0.696-1.452-0.437-2.583,0.348-3.833
			c1.19-0.349,1.321-0.232,2.787,0c0.508,1.554,0,2.047,0,3.833C67.067,46.362,68.708,45.999,69.883,46.086z M69.883,27.276
			c-0.987-7.025,0.305-16.328-0.697-23.338c-21.654,0.217-42.496-0.798-65.137,0c0.581,8.113-0.159,17.242,0.697,26.821
			c4.325-0.42,10.653-0.349,13.237-1.394c-0.508-1.263,0.813-1.51,1.045-2.438c0.449-1.727-0.465-2.698-0.697-4.527
			c-0.248-2.019-0.102-4.079,0-5.923c2.279-0.144,6.763,0.103,10.102,0c1.248,0.219,1.901,1.423,3.483,1.742
			c3.164,0.654,7.938-0.479,11.495,0c1.379-0.667,0.233-2.511,1.394-2.786c4.789,0.101,7.417-0.16,11.495-0.349
			c2.453,3.469,4.253,6.981,3.832,12.539C63.512,27.58,66.748,28.48,69.883,27.276z M67.096,93.807c0-0.231,0-0.463,0-0.696
			c-0.232,0-0.465,0-0.697,0c0,0.233,0,0.465,0,0.696C66.631,93.807,66.864,93.807,67.096,93.807z M60.827,91.718
			c0.551-0.03,1.204,0.043,1.045-0.698c-0.233,0-0.465,0-0.697,0C61.175,91.368,60.898,91.441,60.827,91.718z M60.13,93.11
			c-0.262,1.19,1.335,1.363,1.394,0.349C61.059,93.344,60.855,92.964,60.13,93.11z M55.95,73.952c0-1.044,0-2.089,0-3.136
			c-1.393,0-2.786,0-4.18,0c-0.261,1.308,0.436,1.67,0.348,2.787C53.09,74.023,54.528,73.981,55.95,73.952z M55.602,79.874
			c0.188-2.889-4.252-0.929-5.226-1.045C51.146,80.891,53.468,79.613,55.602,79.874z M55.253,85.796
			c0.334-1.917-0.465-2.366,0.349-4.529c-1.945-0.565-1.916,0.87-3.135,1.045c-0.697-2.511-2.454-0.595-5.225-1.045
			c0.813,1.423-0.609,2.917,0.348,4.181c0.015-0.318,2.482-0.175,2.09,1.044c-0.769,0.813-1.349-0.114-2.438,0
			c0,0.813,0,1.626,0,2.439c0.58,0,1.161,0,1.741,0c0.494-0.451,0.16-1.713,1.045-1.742c1.059,0.523,1.364-0.116,2.089,0.349
			c-0.376,2.424,2.381,1.712,1.046,4.181c0.42,0.406,1.233,0.391,2.089,0.349c0.421-1.699-0.552-1.989-1.393-2.44
			c0.478-0.116,0.667-0.493,1.393-0.347c0-0.697,0-1.395,0-2.091c-0.972-0.755-3.628,0.146-4.528-0.697
			c0.479-2.104-0.538-2.698-1.742-3.134c0.813-0.479,3.745-0.653,4.528,0c-0.551,0.711-2.278,0.274-1.742,2.09
			C53.119,85.374,54.338,85.433,55.253,85.796z M53.164,69.423c1.175,0.015,2.597,0.873,2.786-0.348
			c-3.077-0.768-5.834,0.276-9.057-0.348C47.997,70.02,51.16,69.396,53.164,69.423z M54.905,77.436
			c0.406-0.407,0.392-1.234,0.348-2.09c-0.465,0-0.929,0-1.393,0c0.29,0.986-0.495,0.9-0.349,1.741
			C54.179,77.016,54.281,77.479,54.905,77.436z M52.118,94.504c1.161-0.465,3.484,0.231,3.135-1.742c-0.929,0-1.858,0-2.786,0
			c0.276-1.204-0.523-1.335-0.349-2.438c-1.742-0.291-3.019-1.075-4.876-0.35c0,0.582,0,1.161,0,1.743
			c1.073-0.248,1.277,0.362,2.09,0.349c-0.262-1.206,0.203-1.67,1.394-1.394C50.58,92.573,51.61,93.271,52.118,94.504z
			 M54.905,56.536c-1.799,0.044,0.058-1.335,0-1.742c-0.101-0.826-1.234-1.277-1.044-2.438c1.088-3.063,0.421-8.113-0.349-11.844
			c-0.348,0-0.697,0-1.044,0c-0.029,0.551-0.886,0.276-0.697,1.044c0.043,8.564-0.058,18.695,0,26.125
			c1.089-0.072,2.555,0.233,3.135-0.348c-0.117-1.276-1.378-1.409-1.044-3.134C55.688,61.484,53.715,58.931,54.905,56.536z
			 M55.602,30.76c-1.96-0.827-9.87,1.394-10.102-1.044c-0.102,0.463-0.493,0.667-0.349,1.393
			C47.401,31.979,52.524,31.835,55.602,30.76z M54.208,21.006c0.479-1.044,0.479-2.786,0-3.831c-2.902,0-5.806,0-8.708,0
			c0.333,1.495,0.174,2.976,0.348,3.831C49.506,20.744,51.871,21.659,54.208,21.006z M55.602,29.018
			c-2.467-0.261-5.037-0.291-6.967,0.698C51.131,29.657,54.02,29.99,55.602,29.018z M54.557,35.636
			c-0.262-0.783-1.945-0.131-2.787-0.348c0,0.464,0,0.929,0,1.393C52.858,36.478,54.425,36.781,54.557,35.636z M53.86,38.771
			c-0.842-0.348-0.741-0.116-2.091-0.348C51.523,39.917,53.583,39.554,53.86,38.771z M55.253,33.197
			c-1.974-0.812-5.457-0.116-8.011-0.349c-0.262,0.074-0.407,0.291-0.349,0.698C48.94,34.576,54.136,34.692,55.253,33.197z
			 M52.118,27.973c1.017-0.435,1.379-5.312-0.348-5.226C50.667,23.271,50.536,27.915,52.118,27.973z M52.118,77.436
			c0.363-0.465,0.349-1.276,0.697-1.742c-1.277-0.696-3.846-0.102-5.225-0.696c0,0.581,0,1.162,0,1.742
			C49.535,76.535,50.667,77.145,52.118,77.436z M50.028,58.974c0.261-1.073-0.958-0.667-0.697-1.74
			c1.684-2.279-0.697-7.186,0.697-10.102c-0.929-1.814,0.029-3.005-0.349-6.271c-0.58,0-1.161,0-1.741,0
			c-1.568,8.592,0.71,18.112-1.045,26.82c0.929,0,1.858,0,2.786,0C49.07,64.837,48.911,62.485,50.028,58.974z M47.589,73.952
			c2.119,0.377,2.584-0.9,2.439-2.786c-0.465-0.582-1.974-0.117-2.439-0.697C46.908,71.717,47.75,72.326,47.589,73.952z
			 M46.893,35.288c-0.537,2.235,3.309,2.336,3.135,0.348C49.448,35.057,47.981,35.36,46.893,35.288z M50.028,94.504
			c-0.247-0.958,0.697-0.697,0.697-1.394c-1.422-0.363-1.64,0.103-3.483,0C47.459,95.476,48.925,93.618,50.028,94.504z
			 M49.332,79.874c0.29-1.554-0.609-1.931-1.742-2.091c0,0.697,0,1.394,0,2.091C48.17,79.874,48.751,79.874,49.332,79.874z
			 M48.286,23.097c-0.348,0-0.697,0-1.044,0c0.392,1.466-0.813,4.527,0.697,4.876C49.607,27.117,47.822,24.94,48.286,23.097z
			 M45.848,78.48c0.842-2.889-1.742-2.09-4.18-2.09c-3.222,0-6.561-0.392-8.012,0.349c-1.625-0.189-3.236-0.813-3.135,1.392
			c0.566,0.829,3.078-0.273,3.135,1.046c0.77,0.813-0.072,1.974-0.348,2.788c2.38,0.478,6.937-0.205,9.056,0
			c0.189-1.351-0.624-1.7-0.348-3.136C42.771,78.176,44.57,78.597,45.848,78.48z M45.5,74.649
			c0.755-11.206,0.537-23.267,1.045-35.878c-0.508-0.306-1.103-0.522-1.045-1.394c-4.006-1.264-10.899,0.726-13.934-0.697
			c0.305-0.609,1.104-1.015,0.349-1.74c0.667-0.073,3.44,0.231,2.438-0.35c-1.393,0-2.787,0-4.18,0
			c-0.087,2.003,0.262,4.442-0.348,5.922c1.553-0.275,2.322,0.232,3.134,0.697c0.247,1.872-1.437,4.44,1.393,4.179
			c0.799-1.886-0.42-5.776,2.787-5.226c2.133,0.422-0.204,5.313,2.09,5.575c1.683-0.755-0.262-5.138,1.393-5.922
			c4.296-1.262,3.033,4.861,3.135,6.618c-3.542-0.015-9.391,0.348-13.933-0.349c0.479,7.156,0.086,15.835,0.348,23.337
			c0.073,2.062,0.087,4.238,1.045,5.923c0.392-7.664-0.508-11.641,0.697-17.417c3.121-3.44,11.553-2.626,12.888,2.091
			c0.784,2.772-0.087,8.665,0,11.495C44.832,72.486,44.194,74.198,45.5,74.649z M45.5,94.155c0.188-2.395,1.074-9.347-0.349-12.19
			c-0.058,0.404-0.552,0.377-1.045,0.347C43.889,86.086,42.684,93.996,45.5,94.155z M45.151,28.67
			c0.479-0.449,0.349-1.51,0.349-2.438c-5.182,0.695-12.148-0.422-15.327,1.392c1.452-0.044,2.7,0.104,3.483,0.698
			c-0.247,1.421-0.986,4.44,0.697,4.875c0.9-1.088-0.188-4.135,0.697-5.225c1.045,0,2.09,0,3.134,0c0.291,1.756,0.551,3.541,0,5.225
			c1.989-0.102,0.551-3.629,1.394-4.875C41.582,26.928,42.989,28.379,45.151,28.67z M45.5,24.141
			c-0.319-1.537-1.176-2.539-1.394-4.179c-4.47,0.392-9.637,0.115-13.933,0.696c0.146,1.479-0.334,3.584,0.348,4.528
			C35.006,24.331,41.668,25.65,45.5,24.141z M44.106,35.288c-1.001-0.072-1.771,0.087-2.09,0.696
			C42.946,35.984,44.078,36.172,44.106,35.288z M43.062,74.649c-0.203-5.021-0.377-10.32-0.349-14.63
			C41,58.233,36.4,55.811,33.656,57.929c-1.132,0.887-0.493,2.715-1.741,3.831c0.682,2.846,0.726,6.242,0.697,9.406
			c0,1.133-0.711,3.105,0.348,3.831c1.785-3.033,0.028-8.462,0.696-11.843c1.017-5.037,7.098-4.645,8.36-0.697
			C43.047,65.637,40.667,72.559,43.062,74.649z M40.971,74.649c0.204-1.132-0.232-1.625-0.348-2.439c-1.742,0-3.483,0-5.225,0
			c0.159,1.191-0.131,1.96-0.348,2.787C36.966,74.822,39.622,75.375,40.971,74.649z M37.14,35.636
			C34.919,35.229,36.385,36.695,37.14,35.636L37.14,35.636z M32.96,89.626c0.131-2.104-0.086-4.368,0-5.921
			c-0.828-0.566-1.538-1.247-2.438-1.74c-0.29,2.466,0.261,4.904,0.349,6.966c0.073,1.626-0.769,3.729,0.696,4.876
			C33.714,94.054,32.874,91.225,32.96,89.626z M25.645,89.626c0.711-0.681,2.976,0.189,2.438-1.741
			c-1.698-1.044-3.57-0.535-4.876-0.348c1.422,2.089-1.219,4.297,0,6.27c1.77,0.305,2.598-0.117,4.876,0
			c0.117-1.262-0.058-2.264-0.348-3.134C26.501,90.86,25.95,90.382,25.645,89.626z M27.735,73.604
			c0.218-0.826,0.507-1.596,0.348-2.787c-1.117-0.667-2.06-0.726-3.482-0.348c-0.668,0.828,0.305,3.323-1.394,3.135
			c-1.045-0.929-0.262-2.104-0.697-3.135c-1.118-0.565-1.887-0.16-3.135,0c-0.087,1.48,0.32,2.467,0.697,3.483
			C23.294,73.996,24.977,74.287,27.735,73.604z M27.735,86.144c0.682-0.943,0.218-3.048,0.348-4.527c-1.684-0.35-4.078-0.16-5.573,0
			c0,0.349,0,0.695,0,1.044c0.667,1.075,3.208,0.276,4.18,1.045c0.349,1.917-3.904,1.104-4.18,0.349
			c-0.943,0.681-3.034,0.202-3.135,1.742C21.349,86.289,24.73,85.491,27.735,86.144z M28.083,77.087
			c-0.522-1.061,0.117-1.349-0.348-2.09c-2.279-0.015-5.821-0.306-8.36,0.349c0,0.464,0,0.928,0,1.394
			c0.799,0.827,3.382-0.131,4.18,0.696c0.189-0.509-0.406-1.8,0.349-1.742c1.306,0.232-0.262,1.162,1.044,1.394
			C25.543,76.173,26.748,77.58,28.083,77.087z M27.735,67.334c0.348-10.885,0.276-17.504-0.697-26.124
			c-1.103-0.479-1.161-0.073-2.438,0c-0.016,8.592-0.581,17.213,0.348,26.124C26.211,67.451,26.632,67.871,27.735,67.334z
			 M27.735,80.223c0-0.698,0-1.394,0-2.092c-2.903,0.466-3.847,0.364-8.011,0.35c0,1.626,0,3.252,0,4.877c0.696,0,1.393,0,2.089,0
			c-0.131-1.03-0.856-2.525-0.348-3.135C23.555,80.223,25.645,80.223,27.735,80.223z M27.735,39.468
			c-2.206,0.217-4.92-1.234-5.922,0.695C23.816,39.526,26.399,41.108,27.735,39.468z M27.387,22.4
			c-0.13-1.481,0.333-3.585-0.348-4.529c-2.671,0.015-5.24,0.306-6.967,0.349c-0.798,0.596-0.13,2.655-0.348,3.832
			C21.944,22.501,24.702,22.414,27.387,22.4z M24.601,36.681c0.609,0.943,3.628,1.09,3.832-0.349
			C27.851,35.781,24.702,35.607,24.601,36.681z M28.78,31.455c-2.09-0.812-5.689-0.116-8.359-0.347
			c-0.261,0.072-0.407,0.289-0.349,0.696c-0.421,0.072-0.217,0.393,0,0.697C22.945,31.776,27.096,33.765,28.78,31.455z
			 M25.645,27.973c0.668-0.842,0.218-2.802,0.349-4.18c-0.349,0-0.697,0-1.045,0C24.47,25.157,23.686,27.653,25.645,27.973z
			 M27.039,68.728c-1.48-0.334-5.138-0.102-6.967,0.348C22.017,69.539,25.965,69.38,27.039,68.728z M23.555,35.984
			c-1.001,0.044-2.278-0.189-2.786,0.348c-0.029,1.191,1.03,1.292,1.742,1.742C22.844,37.363,23.221,36.695,23.555,35.984z
			 M22.51,64.896c0.421-7.795-0.305-16.009,0-23.339c-0.073-0.275-0.291-0.404-0.697-0.347c-0.015,0.45-0.45,0.479-0.348,1.045
			c-0.189,6.052,0.261,13.28,0,19.158c-0.087,2.089-1.219,4.411,0.348,5.921C23.105,67.189,22.481,65.49,22.51,64.896z
			 M21.813,86.491c-0.711,0.393-1.393,3.324,0.349,3.135C21.712,88.146,23.221,86.869,21.813,86.491z M21.465,27.624
			c0.958-0.39,0.914-3.005,0.348-3.831c-0.464,0-0.929,0-1.393,0C20.522,25.317,20.188,27.276,21.465,27.624z M20.42,93.459
			c-0.029-0.552,0.043-1.205-0.696-1.046c0,0.232,0,0.465,0,0.697C20.072,93.11,20.145,93.386,20.42,93.459z M19.375,66.638
			c1.786-7.736-0.406-19.42,0.349-26.125c-2.482-0.579-3.324-0.13-5.922,0c-0.972-0.653-0.929-3.759-0.349-4.877
			c1.321-0.231,1.321-0.392,2.787,0c-0.043,2.162,0.479,1.988,0,3.483c1.045,0,2.09,0,3.135,0c0.058-1.916,0.044-3.759-0.348-5.225
			c-3.977-1.539-10.943-0.204-14.63-0.348c0,1.974,0,3.947,0,5.921c1.06-0.015,2.293-0.203,2.089,1.045
			c-1.074,0.247-0.667,0.247-1.742,0c-0.318,3.207,0.015,4.296-0.348,6.619c1.06,0.101,1.248,1.073,2.786,0.695
			c0-1.393,0-2.786,0-4.179c1.727,0.043,1.713-0.35,3.135,0c0.232,2.205,0.102,4.788,3.134,4.179
			c0.334-2.409-0.623-3.991,1.046-4.877c1.364-0.202,2.031,0.306,2.786,0.698c-0.406,2.612,0.712,3.715,2.09,4.527
			c-4.601,0.784-9.579,0.697-14.281,0.35c-1.351,7.169-0.349,14.339-0.349,21.943c0,2.047-0.769,5.037,1.045,6.271
			c0.465,0,0.93,0,1.394,0c0.435-3.818-0.029-10.116,2.438-12.889c-1.205-2.046-3.294-3.207-2.787-6.967
			c0.581-1.406,2.497-1.465,3.135-2.785c-0.784-0.263-0.13-1.961-0.348-2.787c0.841-0.438,1.698-0.856,2.787-1.047
			c1.553,0.64,1.799,2.889,1.741,4.182c0.436,1.653,2.265,1.915,2.438,3.831c-0.479,2.757-2.743,3.745-3.483,6.271
			c3.918,2.872-0.349,14.194,4.528,15.675c0.812-3.745-0.566-8.304,0.697-11.844C18.606,67.609,19.201,67.393,19.375,66.638z
			 M17.285,83.357c1.001-0.044,0.639-1.451,0.697-2.439c-0.856-0.042-1.669-0.059-2.09,0.349
			C16.24,82.095,16.008,83.474,17.285,83.357z M17.982,85.447c0.217-1.582-0.769-1.438-1.742-1.045
			C16.081,85.491,16.98,85.519,17.982,85.447z M17.982,88.931c0.043-0.856,0.058-1.685-0.348-2.09c-0.349,0-0.697,0-1.045,0
			C16.458,88.146,16.864,88.887,17.982,88.931z M11.016,78.48c1.118-0.712,1.088,1.379,1.393,0.349
			c-0.479-0.45-0.145-1.713-1.045-1.742C11.262,77.552,10.87,77.755,11.016,78.48z M8.577,75.346c1.292-0.74,2.787,0.77,3.483-0.696
			c-1.727-0.378-1.655-1.438-1.394-3.135c-0.653,0.071-0.769-0.393-1.393-0.349C8.678,72.182,8.461,73.589,8.577,75.346z
			 M7.88,85.099c1.277-1.089,1.597-5.413,1.742-8.708c-0.436-0.015-0.479-0.45-1.045-0.349C8.519,79.235,7.895,81.849,7.88,85.099z
			 M6.139,84.75c0.465-1.32,1.19-3.541-0.697-3.832c-0.392,1.002-0.624,2.163-0.697,3.484C5.413,84.33,5.515,84.793,6.139,84.75z
			 M7.184,78.131c-0.609-0.304-0.885-0.972-2.089-0.695c-0.204,0.826-0.495,1.596-0.349,2.787C6.632,80.6,6.72,79.177,7.184,78.131z
			 M5.442,91.718c0.102-0.48-0.217-1.366-0.348-0.698C5.007,91.499,5.312,92.385,5.442,91.718z"/>
		<path style="fill:#3E4599;" d="M67.096,66.985c0.667,1.887,0.218,4.892,0.348,7.315c-1.146,0.103-2.844,0.798-3.832,0
			C63.628,70.847,62.626,64.853,67.096,66.985z"/>
		<path style="fill:#3E4599;" d="M44.803,50.265c-1.335,1.715-5.893,0.567-9.405,0.698c-1.205,0.043-2.162,0.798-3.135,0
			c0.77-2.424,4.485-1.828,6.967-1.742C41.015,49.293,43.381,49.367,44.803,50.265z"/>
		<path style="fill:#3E4599;" d="M34.005,53.4c0.61-1.914,8.258-2.568,8.012,0C39.636,54.271,35.703,53.373,34.005,53.4z"/>
		<path style="fill:#3E4599;" d="M26.342,92.413c-1.408,0.523-1.684,0.016-3.135,0.349C23.265,91.077,26.066,90.759,26.342,92.413z"
			/>
		<path style="fill:#3E4599;" d="M24.601,87.885c1.161-0.435,0.856,2.351,0.348,2.439C23.787,90.759,24.107,87.973,24.601,87.885z"
			/>
		<path style="fill:#3E4599;" d="M10.319,38.771c0.436,0.725,2.104,0.218,2.438,1.045c-0.435,1.523-3.642,0.305-5.224,0.696
			c-1.19-1.495-1.306-5.878,2.09-4.877C10.682,36.564,9.782,37.842,10.319,38.771z"/>
	</g>
</g>
<g id="Layer_3">
</g>
</svg>
