<?xml version="1.0" encoding="iso-8859-1"?>
<!-- Generator: Adobe Illustrator 15.0.2, SVG Export Plug-In . SVG Version: 6.00 Build 0)  -->
<!DOCTYPE svg PUBLIC "-//W3C//DTD SVG 1.1//EN" "http://www.w3.org/Graphics/SVG/1.1/DTD/svg11.dtd">
<svg version="1.1" xmlns="http://www.w3.org/2000/svg" xmlns:xlink="http://www.w3.org/1999/xlink" x="0px" y="0px"
	 width="53.083px" height="69.584px" viewBox="0 0 53.083 69.584" style="enable-background:new 0 0 53.083 69.584;"
	 xml:space="preserve">
<g id="Layer_2">
	<g id="XMLID_2_">
		<path style="fill:#3E4599;" d="M15.331,24.572c0.758,0.557,4.75-0.344,5.043-0.273C19.404,23.805,15.897,24.815,15.331,24.572z
			 M50.693,33.759c0.171,11.106,0.93,19.879,0.242,33.714c-2.729,0.525-5.74,0.242-8.732,0.242c-9.984,0-21.203-0.242-32.259-0.242
			c-2.476,0-5.265,0.535-7.519-0.729c0.496-16.33-0.667-39.959-0.485-58.21C1.971,5.745,1.586,2.369,2.668,1.5
			c14.472,0,28.944,0,43.416,0c0.344,0.404,2.335,0.404,2.668,0c0.243,0,0.485,0,0.728,0c1.344,0.728,0.91,2.163,0.97,3.396
			C50.854,13.183,50.551,24.552,50.693,33.759z M49.48,53.891c0.122-6.509,0.131-12.865-0.243-20.616
			c-2.729-0.133-4.467-0.111-7.034,0.242c-0.121,7.275-0.131,16.018,0.243,22.557c0.009,0.404,0.677,0.132,0.728,0.485
			c-1.567,1.293-0.566,3.021-0.728,5.336c0.737-0.151,2.091,0.313,2.425-0.243c-0.171-0.718-1.708-0.061-1.697-0.971
			c0.687-0.362,1.92-0.181,1.456-1.697c-0.092-0.302-1.769,0.364-1.941-0.484c0.415-0.799,2.173,0.475,1.941-0.485
			c0.525-1.395-1.456-1.092-0.729-1.94c1.859,0.374,3.669-0.646,5.336,0.485c-0.586,0.374-1.708,0.232-1.698,1.212
			c0.445,0.536,1,0.799,1.698,0.486c0.485-0.728,0.142-2.284,0.243-3.397c-0.809-0.373-2.153-0.201-3.396-0.242
			c-1.314-0.04-2.91,0.437-3.396-0.484C44.942,53.526,47.206,54.164,49.48,53.891z M49.48,60.438c0.01-0.899-0.111-1.668-0.97-1.697
			c-0.041,0.283-0.384,0.263-0.729,0.242c-0.1,1.041-0.808,2.456-0.242,3.396c0.708-0.263,1.647-0.303,1.698-1.213
			c-0.455-0.112-1.456,0.333-1.213-0.486C48.621,60.712,49.197,60.722,49.48,60.438z M49.237,32.546c0-3.557,0-7.114,0-10.672
			c-2.617-0.111-4.578,0.435-7.276,0.243c-0.526,1.171-0.526,2.869-0.485,4.607c1.152-0.091,2.021,0.081,2.911,0.243
			c0.596-0.617-0.111-2.536,0.485-3.153c0.566,0,1.132,0,1.698,0c0.323,0.728,0.252,1.859,0.242,2.91
			c0.94,0.031,2.233-0.293,1.94,0.971c-2.668-0.061-4.255-0.253-7.034,0.242c0.132,1.415,0.365,2.719,0.243,4.366
			c0.889,0.303,1.748,0.11,2.668,0c0.485-1.011-0.304-1.798,0.242-2.669c0.829-0.242,0.92-0.162,1.94,0c0.354,1.082,0,1.426,0,2.669
			C47.276,32.738,48.419,32.485,49.237,32.546z M49.237,19.448c-0.687-4.892,0.212-11.369-0.485-16.25
			c-15.079,0.151-29.591-0.556-45.356,0C3.8,8.847,3.285,15.204,3.881,21.874c3.011-0.292,7.418-0.242,9.217-0.971
			c-0.354-0.879,0.566-1.051,0.728-1.697c0.313-1.202-0.324-1.879-0.485-3.152c-0.172-1.406-0.071-2.841,0-4.125
			c1.587-0.1,4.709,0.071,7.034,0c0.869,0.152,1.323,0.991,2.425,1.213c2.203,0.456,5.527-0.333,8.004,0
			c0.96-0.464,0.162-1.748,0.97-1.94c3.334,0.07,5.164-0.111,8.004-0.243c1.708,2.416,2.961,4.861,2.668,8.731
			C44.801,19.66,47.054,20.287,49.237,19.448z M47.297,65.775c0-0.162,0-0.323,0-0.485c-0.162,0-0.324,0-0.485,0
			c0,0.162,0,0.323,0,0.485C46.973,65.775,47.135,65.775,47.297,65.775z M42.931,64.32c0.384-0.021,0.838,0.03,0.728-0.486
			c-0.162,0-0.324,0-0.485,0C43.174,64.077,42.981,64.128,42.931,64.32z M42.446,65.29c-0.183,0.829,0.929,0.949,0.97,0.243
			C43.093,65.452,42.951,65.188,42.446,65.29z M39.535,51.95c0-0.728,0-1.455,0-2.184c-0.97,0-1.94,0-2.911,0
			c-0.182,0.91,0.303,1.162,0.243,1.94C37.544,51.999,38.545,51.971,39.535,51.95z M39.293,56.073
			c0.131-2.012-2.961-0.646-3.639-0.728C36.19,56.781,37.808,55.892,39.293,56.073z M39.05,60.197
			c0.232-1.335-0.324-1.648,0.243-3.154c-1.354-0.394-1.334,0.605-2.183,0.728c-0.486-1.748-1.708-0.414-3.639-0.728
			c0.566,0.991-0.424,2.031,0.242,2.911c0.011-0.222,1.728-0.122,1.455,0.727c-0.535,0.566-0.939-0.079-1.697,0
			c0,0.566,0,1.133,0,1.699c0.404,0,0.808,0,1.212,0c0.344-0.314,0.112-1.193,0.728-1.213c0.737,0.364,0.95-0.081,1.455,0.242
			c-0.262,1.688,1.658,1.192,0.728,2.911c0.292,0.283,0.858,0.272,1.455,0.243c0.293-1.184-0.384-1.386-0.97-1.699
			c0.333-0.081,0.465-0.344,0.97-0.242c0-0.485,0-0.971,0-1.455c-0.677-0.526-2.527,0.101-3.153-0.486
			c0.333-1.464-0.375-1.879-1.213-2.182c0.566-0.333,2.607-0.455,3.153,0c-0.384,0.495-1.586,0.191-1.213,1.455
			C37.564,59.903,38.414,59.944,39.05,60.197z M37.595,48.796c0.818,0.011,1.809,0.608,1.94-0.242
			c-2.143-0.534-4.062,0.192-6.306-0.242C33.998,49.212,36.2,48.777,37.595,48.796z M38.808,54.375
			c0.283-0.283,0.273-0.859,0.243-1.455c-0.324,0-0.647,0-0.97,0c0.202,0.688-0.344,0.627-0.243,1.213
			C38.302,54.083,38.374,54.405,38.808,54.375z M36.867,66.261c0.809-0.324,2.426,0.161,2.183-1.214c-0.647,0-1.294,0-1.94,0
			c0.192-0.838-0.364-0.929-0.243-1.697c-1.213-0.202-2.102-0.748-3.396-0.243c0,0.405,0,0.809,0,1.214
			c0.748-0.173,0.889,0.252,1.455,0.243c-0.182-0.84,0.142-1.163,0.971-0.971C35.796,64.916,36.514,65.401,36.867,66.261z
			 M38.808,39.822c-1.253,0.031,0.041-0.929,0-1.213c-0.07-0.575-0.859-0.89-0.727-1.697c0.757-2.133,0.293-5.649-0.243-8.247
			c-0.242,0-0.485,0-0.727,0c-0.021,0.384-0.617,0.192-0.486,0.728c0.03,5.963-0.04,13.018,0,18.191
			c0.758-0.051,1.779,0.162,2.183-0.242c-0.081-0.889-0.959-0.981-0.727-2.183C39.354,43.269,37.979,41.49,38.808,39.822z
			 M39.293,21.874c-1.365-0.576-6.873,0.971-7.034-0.727c-0.071,0.322-0.343,0.464-0.243,0.97
			C33.583,22.723,37.15,22.623,39.293,21.874z M38.323,15.083c0.333-0.727,0.333-1.94,0-2.668c-2.021,0-4.043,0-6.064,0
			c0.232,1.041,0.121,2.072,0.243,2.668C35.049,14.9,36.695,15.537,38.323,15.083z M39.293,20.661
			c-1.718-0.182-3.507-0.203-4.851,0.486C36.18,21.106,38.191,21.338,39.293,20.661z M38.565,25.27
			c-0.182-0.546-1.354-0.091-1.941-0.242c0,0.323,0,0.646,0,0.97C37.383,25.855,38.474,26.067,38.565,25.27z M38.081,27.453
			c-0.586-0.242-0.516-0.081-1.456-0.242C36.453,28.25,37.888,27.997,38.081,27.453z M39.05,23.571
			c-1.375-0.565-3.8-0.081-5.579-0.242c-0.182,0.051-0.283,0.202-0.243,0.485C34.654,24.531,38.272,24.612,39.05,23.571z
			 M36.867,19.934c0.708-0.303,0.96-3.698-0.243-3.639C35.857,16.659,35.766,19.894,36.867,19.934z M36.867,54.375
			c0.253-0.323,0.243-0.889,0.485-1.213c-0.889-0.484-2.678-0.07-3.638-0.484c0,0.404,0,0.809,0,1.213
			C35.068,53.748,35.857,54.173,36.867,54.375z M35.412,41.52c0.182-0.747-0.667-0.464-0.485-1.211
			c1.172-1.588-0.485-5.004,0.485-7.034c-0.647-1.264,0.021-2.093-0.243-4.366c-0.404,0-0.808,0-1.212,0
			c-1.092,5.982,0.495,12.611-0.728,18.676c0.647,0,1.294,0,1.94,0C34.745,45.603,34.634,43.965,35.412,41.52z M33.714,51.95
			c1.476,0.262,1.799-0.627,1.698-1.94c-0.324-0.405-1.374-0.082-1.698-0.485C33.239,50.394,33.826,50.817,33.714,51.95z
			 M33.229,25.027c-0.374,1.557,2.304,1.627,2.183,0.242C35.008,24.866,33.987,25.077,33.229,25.027z M35.412,66.261
			c-0.172-0.667,0.485-0.485,0.485-0.971c-0.991-0.253-1.142,0.071-2.426,0C33.623,66.938,34.644,65.644,35.412,66.261z
			 M34.927,56.073c0.202-1.082-0.424-1.345-1.213-1.456c0,0.485,0,0.971,0,1.456C34.118,56.073,34.523,56.073,34.927,56.073z
			 M34.199,16.538c-0.242,0-0.485,0-0.728,0c0.273,1.021-0.566,3.152,0.485,3.396C35.119,19.338,33.876,17.822,34.199,16.538z
			 M32.501,55.103c0.586-2.011-1.213-1.455-2.911-1.455c-2.244,0-4.568-0.272-5.579,0.243c-1.132-0.132-2.254-0.566-2.183,0.969
			c0.394,0.577,2.143-0.19,2.183,0.729c0.536,0.566-0.05,1.374-0.242,1.941c1.657,0.332,4.83-0.143,6.306,0
			c0.132-0.94-0.434-1.184-0.242-2.184C30.359,54.891,31.612,55.184,32.501,55.103z M32.259,52.436
			c0.526-7.803,0.374-16.201,0.728-24.982c-0.354-0.213-0.768-0.364-0.728-0.971c-2.789-0.88-7.589,0.505-9.702-0.485
			c0.213-0.425,0.769-0.707,0.243-1.212c0.464-0.051,2.395,0.161,1.697-0.243c-0.97,0-1.94,0-2.91,0
			c-0.061,1.395,0.182,3.093-0.242,4.123c1.081-0.191,1.617,0.162,2.183,0.485c0.172,1.304-1.001,3.093,0.97,2.91
			c0.556-1.313-0.292-4.022,1.941-3.639c1.485,0.294-0.142,3.7,1.456,3.882c1.171-0.525-0.182-3.577,0.97-4.123
			c2.992-0.879,2.112,3.385,2.183,4.608c-2.466-0.011-6.539,0.242-9.702-0.243c0.333,4.983,0.06,11.026,0.242,16.25
			c0.05,1.436,0.061,2.951,0.728,4.124c0.273-5.336-0.354-8.105,0.485-12.128c2.173-2.396,8.044-1.828,8.974,1.456
			c0.545,1.931-0.061,6.034,0,8.005C31.794,50.929,31.35,52.121,32.259,52.436z M32.259,66.018c0.131-1.667,0.748-6.508-0.243-8.488
			c-0.041,0.281-0.384,0.263-0.728,0.241C31.137,60.398,30.298,65.907,32.259,66.018z M32.016,20.419
			c0.333-0.313,0.243-1.052,0.243-1.697c-3.608,0.484-8.459-0.294-10.672,0.969c1.011-0.03,1.88,0.072,2.425,0.486
			c-0.172,0.989-0.687,3.092,0.485,3.395c0.627-0.758-0.131-2.879,0.486-3.638c0.728,0,1.455,0,2.182,0
			c0.203,1.223,0.384,2.466,0,3.638c1.385-0.07,0.384-2.526,0.971-3.395C29.531,19.206,30.51,20.217,32.016,20.419z M32.259,17.265
			c-0.222-1.07-0.818-1.768-0.97-2.909c-3.113,0.272-6.71,0.08-9.702,0.485c0.101,1.03-0.233,2.496,0.242,3.153
			C24.952,17.397,29.591,18.316,32.259,17.265z M31.289,25.027c-0.697-0.051-1.233,0.061-1.455,0.484
			C30.48,25.512,31.269,25.643,31.289,25.027z M30.561,52.436c-0.142-3.497-0.263-7.187-0.243-10.188
			c-1.192-1.243-4.396-2.931-6.306-1.456c-0.789,0.618-0.344,1.891-1.212,2.668c0.475,1.981,0.505,4.347,0.485,6.55
			c0,0.789-0.495,2.162,0.243,2.668c1.243-2.112,0.02-5.893,0.485-8.247c0.708-3.507,4.942-3.233,5.821-0.485
			C30.551,46.159,28.894,50.979,30.561,52.436z M29.105,52.436c0.142-0.788-0.162-1.132-0.242-1.699c-1.213,0-2.425,0-3.638,0
			c0.111,0.83-0.091,1.365-0.242,1.941C26.316,52.556,28.166,52.94,29.105,52.436z M26.438,25.27
			C24.892,24.986,25.912,26.007,26.438,25.27L26.438,25.27z M23.527,62.864c0.091-1.466-0.061-3.042,0-4.123
			c-0.577-0.395-1.071-0.868-1.698-1.212c-0.202,1.717,0.182,3.415,0.243,4.851c0.051,1.132-0.535,2.597,0.485,3.396
			C24.052,65.947,23.467,63.977,23.527,62.864z M18.433,62.864c0.496-0.475,2.072,0.132,1.698-1.213
			c-1.182-0.727-2.486-0.373-3.396-0.242c0.991,1.455-0.849,2.992,0,4.366c1.232,0.212,1.809-0.082,3.396,0
			c0.081-0.879-0.041-1.577-0.242-2.183C19.03,63.724,18.646,63.391,18.433,62.864z M19.889,51.707
			c0.152-0.575,0.353-1.111,0.242-1.94c-0.778-0.465-1.435-0.506-2.425-0.242c-0.465,0.576,0.212,2.313-0.971,2.183
			c-0.728-0.646-0.182-1.465-0.485-2.183c-0.778-0.394-1.314-0.111-2.183,0c-0.061,1.03,0.223,1.718,0.485,2.426
			C16.797,51.98,17.968,52.183,19.889,51.707z M19.889,60.438c0.475-0.656,0.152-2.122,0.242-3.152c-1.172-0.243-2.84-0.111-3.88,0
			c0,0.243,0,0.484,0,0.728c0.465,0.748,2.233,0.192,2.91,0.728c0.243,1.335-2.718,0.769-2.91,0.242
			c-0.657,0.475-2.113,0.142-2.183,1.214C15.442,60.54,17.797,59.984,19.889,60.438z M20.131,54.133
			c-0.364-0.738,0.081-0.939-0.242-1.455c-1.587-0.011-4.053-0.213-5.821,0.242c0,0.323,0,0.646,0,0.971
			c0.556,0.576,2.354-0.091,2.91,0.484c0.132-0.354-0.283-1.253,0.243-1.213c0.91,0.162-0.182,0.81,0.727,0.971
			C18.363,53.496,19.202,54.476,20.131,54.133z M19.889,47.342c0.242-7.58,0.192-12.188-0.485-18.191
			c-0.768-0.333-0.808-0.051-1.697,0c-0.011,5.983-0.404,11.986,0.242,18.191C18.828,47.423,19.121,47.716,19.889,47.342z
			 M19.889,56.316c0-0.486,0-0.971,0-1.457c-2.021,0.324-2.679,0.254-5.579,0.243c0,1.133,0,2.265,0,3.396c0.485,0,0.97,0,1.455,0
			c-0.091-0.718-0.596-1.759-0.242-2.183C16.978,56.316,18.433,56.316,19.889,56.316z M19.889,27.938
			c-1.536,0.151-3.426-0.859-4.124,0.484C17.16,27.979,18.959,29.08,19.889,27.938z M19.646,16.054
			c-0.091-1.032,0.232-2.497-0.243-3.154c-1.86,0.01-3.648,0.213-4.851,0.243c-0.556,0.415-0.091,1.849-0.242,2.668
			C15.856,16.123,17.777,16.063,19.646,16.054z M17.707,25.997c0.424,0.657,2.526,0.759,2.668-0.243
			C19.97,25.371,17.777,25.25,17.707,25.997z M20.616,22.358c-1.455-0.565-3.961-0.081-5.821-0.241
			c-0.182,0.05-0.283,0.201-0.243,0.484c-0.293,0.051-0.151,0.273,0,0.485C16.554,22.582,19.444,23.967,20.616,22.358z
			 M18.433,19.934c0.466-0.586,0.152-1.951,0.243-2.91c-0.243,0-0.485,0-0.728,0C17.616,17.973,17.069,19.711,18.433,19.934z
			 M19.404,48.312c-1.031-0.232-3.577-0.07-4.851,0.242C15.907,48.877,18.656,48.766,19.404,48.312z M16.978,25.512
			c-0.697,0.031-1.586-0.132-1.94,0.242c-0.021,0.83,0.717,0.9,1.213,1.214C16.483,26.473,16.746,26.007,16.978,25.512z
			 M16.251,45.644c0.293-5.428-0.212-11.147,0-16.251C16.2,29.2,16.048,29.11,15.766,29.15c-0.01,0.313-0.313,0.334-0.242,0.729
			c-0.132,4.214,0.182,9.247,0,13.34c-0.061,1.454-0.849,3.071,0.242,4.123C16.665,47.241,16.23,46.058,16.251,45.644z
			 M15.766,60.681c-0.495,0.273-0.97,2.315,0.243,2.184C15.695,61.834,16.746,60.944,15.766,60.681z M15.523,19.69
			c0.667-0.271,0.636-2.092,0.242-2.667c-0.323,0-0.646,0-0.97,0C14.866,18.085,14.634,19.448,15.523,19.69z M14.795,65.533
			c-0.02-0.385,0.03-0.84-0.485-0.729c0,0.162,0,0.323,0,0.485C14.553,65.29,14.604,65.481,14.795,65.533z M14.068,46.856
			c1.243-5.387-0.283-13.522,0.243-18.191c-1.728-0.403-2.314-0.09-4.123,0C9.51,28.21,9.54,26.048,9.944,25.27
			c0.92-0.161,0.92-0.272,1.94,0c-0.03,1.506,0.333,1.385,0,2.426c0.728,0,1.456,0,2.183,0c0.04-1.335,0.03-2.618-0.242-3.639
			c-2.77-1.071-7.62-0.142-10.187-0.242c0,1.375,0,2.749,0,4.123c0.738-0.01,1.597-0.142,1.455,0.728
			c-0.748,0.172-0.465,0.172-1.212,0c-0.222,2.233,0.01,2.991-0.242,4.609c0.738,0.07,0.869,0.747,1.94,0.484c0-0.97,0-1.94,0-2.91
			c1.203,0.03,1.193-0.243,2.183,0c0.162,1.535,0.071,3.334,2.183,2.91c0.232-1.678-0.434-2.779,0.728-3.396
			c0.95-0.141,1.415,0.213,1.94,0.486c-0.282,1.819,0.496,2.587,1.456,3.152c-3.204,0.546-6.67,0.485-9.944,0.244
			c-0.94,4.991-0.243,9.984-0.243,15.279c0,1.425-0.536,3.507,0.728,4.366c0.323,0,0.647,0,0.97,0
			c0.303-2.659-0.02-7.044,1.698-8.975c-0.839-1.425-2.294-2.233-1.94-4.852c0.405-0.979,1.739-1.02,2.183-1.939
			c-0.546-0.183-0.09-1.365-0.243-1.94c0.586-0.305,1.183-0.597,1.94-0.729c1.081,0.445,1.253,2.011,1.212,2.911
			c0.304,1.151,1.577,1.334,1.698,2.668c-0.333,1.92-1.91,2.607-2.425,4.366c2.729,2-0.243,9.884,3.153,10.915
			c0.565-2.608-0.395-5.782,0.485-8.247C13.533,47.533,13.946,47.382,14.068,46.856z M12.612,58.499
			c0.697-0.03,0.445-1.011,0.485-1.699c-0.596-0.028-1.163-0.04-1.456,0.243C11.885,57.62,11.723,58.58,12.612,58.499z
			 M13.098,59.954c0.151-1.102-0.536-1.001-1.213-0.728C11.774,59.984,12.4,60.004,13.098,59.954z M13.098,62.38
			c0.03-0.597,0.041-1.173-0.242-1.455c-0.243,0-0.486,0-0.728,0C12.037,61.834,12.319,62.349,13.098,62.38z M8.247,55.103
			c0.778-0.495,0.758,0.961,0.97,0.243c-0.333-0.313-0.101-1.192-0.728-1.213C8.418,54.456,8.146,54.598,8.247,55.103z M6.549,52.92
			c0.9-0.516,1.94,0.536,2.426-0.484c-1.203-0.264-1.153-1.001-0.971-2.183c-0.455,0.049-0.535-0.273-0.97-0.243
			C6.619,50.717,6.468,51.697,6.549,52.92z M6.064,59.711c0.889-0.758,1.112-3.769,1.212-6.063c-0.303-0.01-0.333-0.313-0.728-0.242
			C6.508,55.629,6.074,57.448,6.064,59.711z M4.851,59.469c0.324-0.92,0.829-2.466-0.485-2.669
			c-0.273,0.698-0.434,1.507-0.485,2.427C4.346,59.176,4.417,59.498,4.851,59.469z M5.579,54.859
			c-0.424-0.211-0.617-0.677-1.455-0.484c-0.142,0.576-0.344,1.111-0.243,1.941C5.195,56.578,5.255,55.588,5.579,54.859z
			 M4.366,64.32c0.071-0.335-0.151-0.951-0.242-0.486C4.063,64.168,4.275,64.785,4.366,64.32z"/>
		<path style="fill:#3E4599;" d="M47.297,47.099c0.465,1.313,0.152,3.406,0.242,5.094c-0.798,0.071-1.98,0.556-2.668,0
			C44.882,49.787,44.185,45.613,47.297,47.099z"/>
		<path style="fill:#3E4599;" d="M31.774,35.456c-0.93,1.193-4.104,0.395-6.549,0.486c-0.839,0.029-1.505,0.555-2.183,0
			c0.536-1.688,3.123-1.273,4.852-1.214C29.136,34.779,30.783,34.831,31.774,35.456z"/>
		<path style="fill:#3E4599;" d="M24.255,37.64c0.424-1.333,5.75-1.789,5.579,0C28.176,38.246,25.438,37.62,24.255,37.64z"/>
		<path style="fill:#3E4599;" d="M18.919,64.805c-0.98,0.364-1.172,0.011-2.183,0.242C16.776,63.874,18.727,63.652,18.919,64.805z"
			/>
		<path style="fill:#3E4599;" d="M17.707,61.651c0.808-0.303,0.596,1.637,0.242,1.698C17.14,63.652,17.363,61.713,17.707,61.651z"/>
		<path style="fill:#3E4599;" d="M7.762,27.453c0.303,0.504,1.465,0.151,1.697,0.728c-0.303,1.061-2.536,0.212-3.638,0.484
			c-0.829-1.041-0.91-4.093,1.455-3.396C8.014,25.916,7.388,26.806,7.762,27.453z"/>
	</g>
</g>
<g id="Layer_3">
</g>
</svg>
