<?xml version="1.0" encoding="iso-8859-1"?>
<!-- Generator: Adobe Illustrator 15.0.2, SVG Export Plug-In . SVG Version: 6.00 Build 0)  -->
<!DOCTYPE svg PUBLIC "-//W3C//DTD SVG 1.1//EN" "http://www.w3.org/Graphics/SVG/1.1/DTD/svg11.dtd">
<svg version="1.1" id="Layer_1" xmlns="http://www.w3.org/2000/svg" xmlns:xlink="http://www.w3.org/1999/xlink" x="0px" y="0px"
	 width="400px" height="71.591px" viewBox="-8.958 22.701 400 71.591" style="enable-background:new -8.958 22.701 400 71.591;"
	 xml:space="preserve">
<g id="Layer_2">
	<g id="XMLID_2_">
		<path style="fill:#082737;" d="M15.189,44.24c1.098,0.649,6.884-0.402,7.309-0.319C21.091,43.345,16.008,44.523,15.189,44.24z
			 M66.439,54.965c0.249,12.966,1.349,23.206,0.351,39.359c-3.954,0.611-8.319,0.281-12.655,0.281
			c-14.47,0-30.729-0.281-46.753-0.281c-3.589,0-7.63,0.623-10.897-0.853c0.72-19.064-0.966-46.647-0.703-67.955
			c0.044-3.256-0.514-1.801,1.055-2.816c20.974,0,41.948,0,62.923,0c0.497,0.471,3.383,0.471,3.866,0c0.352,0,0.703,0,1.053,0
			c1.952,0.85,1.322,2.525,1.406,3.964C66.672,36.34,66.233,44.216,66.439,54.965z M64.678,78.467
			c0.18-7.598,0.192-15.019-0.35-24.067c-3.954-0.154-6.476-0.129-10.194,0.283c-0.175,8.493-0.19,18.699,0.351,26.333
			c0.017,0.471,0.983,0.153,1.059,0.568c-2.273,1.508-0.823,3.525-1.059,6.229c1.069-0.178,3.033,0.363,3.518-0.286
			c-0.249-0.836-2.477-0.07-2.459-1.133c0.993-0.423,2.781-0.211,2.107-1.981c-0.133-0.351-2.563,0.427-2.813-0.563
			c0.604-0.933,3.15,0.555,2.813-0.567c0.76-1.628-2.107-1.273-1.057-2.264c2.696,0.436,5.318-0.756,7.734,0.566
			c-0.851,0.436-2.476,0.27-2.461,1.413c0.645,0.626,1.45,0.934,2.461,0.568c0.703-0.85,0.206-2.667,0.35-3.967
			c-1.171-0.435-3.117-0.233-4.919-0.281c-1.906-0.047-4.216,0.51-4.923-0.566C58.104,78.042,61.384,78.786,64.678,78.467z
			 M64.678,86.11c0.018-1.049-0.157-1.946-1.402-1.981c-0.06,0.331-0.557,0.308-1.058,0.283c-0.145,1.215-1.171,2.866-0.351,3.963
			c1.025-0.306,2.387-0.352,2.461-1.415c-0.66-0.13-2.11,0.389-1.759-0.566C63.437,86.431,64.271,86.441,64.678,86.11z
			 M64.329,53.549c0-4.152,0-8.305,0-12.459c-3.793-0.129-6.636,0.508-10.545,0.284c-0.764,1.367-0.764,3.349-0.703,5.378
			c1.669-0.106,2.93,0.095,4.22,0.283c0.863-0.72-0.162-2.96,0.702-3.681c0.82,0,1.643,0,2.46,0c0.469,0.85,0.366,2.171,0.352,3.397
			c1.363,0.036,3.237-0.342,2.812,1.134c-3.866-0.072-6.166-0.295-10.194,0.282c0.191,1.652,0.528,3.175,0.353,5.097
			c1.289,0.354,2.534,0.129,3.867,0c0.701-1.18-0.442-2.1,0.352-3.115c1.199-0.282,1.334-0.188,2.81,0c0.512,1.263,0,1.664,0,3.115
			C61.486,53.772,63.142,53.478,64.329,53.549z M64.329,38.259c-0.998-5.712,0.309-7.877-0.703-13.575
			c-21.854,0.176-42.886-0.649-65.734,0c0.585,6.594-0.161,8.62,0.702,16.406c4.365-0.34,10.752-0.283,13.359-1.134
			c-0.512-1.025,0.82-1.227,1.056-1.98c0.454-1.403-0.47-2.193-0.703-3.68c-0.25-1.642-0.104-3.317,0-4.816
			c2.3-0.117,6.824,0.083,10.194,0c1.259,0.178,1.917,1.157,3.515,1.417c3.192,0.532,8.01-0.39,11.602,0
			c1.389-0.542,0.232-2.041,1.404-2.265c4.833,0.081,7.484-0.13,11.601-0.284c2.476,2.82,4.291,5.675,3.865,10.192
			C57.902,38.506,61.167,39.237,64.329,38.259z M61.517,92.34c0-0.189,0-0.376,0-0.564c-0.234,0-0.47,0-0.703,0
			c0,0.188,0,0.375,0,0.564C61.047,92.34,61.283,92.34,61.517,92.34z M55.19,90.641c0.556-0.023,1.214,0.037,1.053-0.565
			c-0.232,0-0.469,0-0.699,0C55.543,90.359,55.261,90.418,55.19,90.641z M54.485,91.775c-0.263,0.968,1.349,1.107,1.408,0.284
			C55.423,91.964,55.219,91.657,54.485,91.775z M50.268,76.201c0-0.851,0-1.698,0-2.549c-1.406,0-2.812,0-4.221,0
			c-0.263,1.062,0.441,1.355,0.354,2.265C47.379,76.259,48.833,76.227,50.268,76.201z M49.917,81.015
			c0.189-2.349-4.292-0.755-5.275-0.851C45.418,81.842,47.763,80.803,49.917,81.015z M49.566,85.828
			c0.333-1.558-0.471-1.923,0.352-3.681c-1.962-0.461-1.934,0.705-3.165,0.849c-0.705-2.04-2.475-0.483-5.274-0.849
			c0.822,1.156-0.612,2.372,0.353,3.397c0.014-0.259,2.503-0.142,2.107,0.849c-0.774,0.661-1.359-0.092-2.46,0
			c0,0.661,0,1.322,0,1.984c0.586,0,1.171,0,1.758,0c0.497-0.369,0.163-1.394,1.055-1.417c1.068,0.425,1.376-0.095,2.107,0.282
			c-0.379,1.971,2.404,1.392,1.057,3.397c0.423,0.331,1.242,0.318,2.111,0.286c0.423-1.383-0.56-1.619-1.409-1.984
			c0.483-0.095,0.674-0.401,1.409-0.282c0-0.567,0-1.134,0-1.699c-0.984-0.612-3.665,0.12-4.571-0.567
			c0.482-1.709-0.545-2.193-1.759-2.547c0.818-0.389,3.777-0.531,4.569,0c-0.558,0.578-2.299,0.224-1.758,1.698
			C47.411,85.486,48.644,85.534,49.566,85.828z M47.457,72.519c1.184,0.014,2.62,0.711,2.812-0.282
			c-3.106-0.623-5.889,0.224-9.14-0.283C42.243,73.004,45.433,72.496,47.457,72.519z M49.214,79.032
			c0.409-0.331,0.394-1.002,0.353-1.699c-0.471,0-0.939,0-1.406,0c0.293,0.805-0.5,0.732-0.353,1.416
			C48.481,78.691,48.585,79.068,49.214,79.032z M46.401,92.908c1.173-0.378,3.517,0.188,3.165-1.417c-0.939,0-1.877,0-2.813,0
			c0.279-0.979-0.526-1.084-0.352-1.98c-1.759-0.237-3.048-0.873-4.923-0.285c0,0.475,0,0.945,0,1.419
			c1.085-0.204,1.29,0.293,2.11,0.282c-0.262-0.981,0.205-1.356,1.407-1.134C44.847,91.339,45.889,91.904,46.401,92.908z
			 M49.214,62.043c-1.816,0.035,0.058-1.084,0-1.416c-0.103-0.671-1.243-1.039-1.054-1.98c1.096-2.491,0.425-6.595-0.353-9.628
			c-0.351,0-0.701,0-1.054,0c-0.03,0.447-0.894,0.224-0.705,0.85c0.044,6.962-0.058,15.196,0,21.235
			c1.099-0.06,2.578,0.19,3.165-0.282c-0.118-1.037-1.391-1.146-1.054-2.548C50.005,66.067,48.011,63.991,49.214,62.043z
			 M49.917,41.09c-1.979-0.672-9.962,1.134-10.196-0.849c-0.101,0.376-0.495,0.542-0.351,1.133
			C41.64,42.081,46.811,41.965,49.917,41.09z M48.511,33.162c0.481-0.849,0.481-2.265,0-3.114c-2.93,0-5.861,0-8.79,0
			c0.336,1.215,0.177,2.418,0.354,3.114C43.767,32.948,46.15,33.692,48.511,33.162z M49.917,39.675
			c-2.49-0.213-5.083-0.237-7.032,0.566C45.405,40.193,48.32,40.464,49.917,39.675z M48.862,45.055
			c-0.264-0.638-1.962-0.106-2.814-0.282c0,0.377,0,0.754,0,1.132C47.148,45.737,48.73,45.985,48.862,45.055z M48.161,47.604
			c-0.849-0.283-0.747-0.095-2.111-0.283C45.801,48.534,47.881,48.237,48.161,47.604z M49.566,43.071
			c-1.995-0.66-5.507-0.095-8.088-0.282c-0.264,0.059-0.41,0.236-0.351,0.565C43.194,44.192,48.439,44.286,49.566,43.071z
			 M46.401,38.825c1.026-0.354,1.39-4.317-0.354-4.249C44.937,35.002,44.806,38.779,46.401,38.825z M46.401,79.032
			c0.366-0.378,0.352-1.039,0.702-1.416c-1.287-0.566-3.88-0.083-5.272-0.566c0,0.473,0,0.946,0,1.417
			C43.793,78.3,44.937,78.797,46.401,79.032z M44.293,64.025c0.263-0.873-0.967-0.543-0.705-1.413
			c1.698-1.854-0.703-5.842,0.705-8.213c-0.94-1.476,0.028-2.443-0.355-5.097c-0.585,0-1.169,0-1.755,0
			c-1.58,6.983,0.716,14.723-1.055,21.802c0.936,0,1.875,0,2.81,0C43.327,68.792,43.164,66.879,44.293,64.025z M41.831,76.201
			c2.139,0.306,2.607-0.732,2.463-2.265c-0.471-0.474-1.993-0.096-2.463-0.566C41.141,74.384,41.995,74.879,41.831,76.201z
			 M41.128,44.771c-0.541,1.818,3.34,1.899,3.165,0.283C43.708,44.583,42.227,44.829,41.128,44.771z M44.293,92.908
			c-0.25-0.778,0.702-0.565,0.702-1.133c-1.438-0.296-1.657,0.081-3.518,0C41.699,93.698,43.178,92.188,44.293,92.908z
			 M43.588,81.015c0.295-1.263-0.614-1.571-1.758-1.7c0,0.567,0,1.133,0,1.7C42.417,81.015,43.003,81.015,43.588,81.015z
			 M42.536,34.861c-0.353,0-0.705,0-1.058,0c0.397,1.191-0.82,3.679,0.703,3.964C43.87,38.129,42.064,36.36,42.536,34.861z
			 M40.073,79.882c0.849-2.349-1.759-1.699-4.218-1.699c-3.255,0-6.622-0.317-8.087,0.284c-1.641-0.153-3.268-0.66-3.163,1.132
			c0.571,0.673,3.105-0.222,3.163,0.851c0.776,0.66-0.072,1.604-0.351,2.267c2.4,0.388,7-0.166,9.139,0
			c0.192-1.098-0.629-1.382-0.351-2.549C36.968,79.637,38.784,79.978,40.073,79.882z M39.721,76.769
			c0.765-9.109,0.543-18.912,1.057-29.164c-0.514-0.249-1.113-0.425-1.057-1.134c-4.041-1.027-10.998,0.59-14.06-0.566
			c0.309-0.496,1.114-0.825,0.352-1.414c0.672-0.061,3.471,0.188,2.46-0.284c-1.407,0-2.812,0-4.218,0
			c-0.088,1.629,0.264,3.61-0.35,4.813c1.566-0.223,2.343,0.188,3.163,0.565c0.25,1.523-1.45,3.611,1.407,3.397
			c0.805-1.532-0.424-4.695,2.813-4.248c2.151,0.343-0.206,4.318,2.11,4.532c1.696-0.614-0.264-4.177,1.406-4.814
			c4.335-1.025,3.061,3.952,3.163,5.381c-3.573-0.015-9.479,0.283-14.061-0.284c0.482,5.815,0.087,12.872,0.35,18.97
			c0.073,1.677,0.088,3.445,1.055,4.814c0.395-6.229-0.512-9.461,0.704-14.157c3.149-2.798,11.657-2.135,13.004,1.698
			c0.789,2.255-0.089,7.045,0,9.347C39.046,75.01,38.404,76.401,39.721,76.769z M39.721,92.625c0.19-1.947,1.085-7.599-0.351-9.909
			c-0.06,0.328-0.557,0.307-1.057,0.28C38.096,86.063,36.879,92.495,39.721,92.625z M39.371,39.392
			c0.481-0.365,0.351-1.228,0.351-1.98c-5.229,0.564-12.259-0.345-15.466,1.131c1.465-0.036,2.726,0.084,3.515,0.566
			c-0.25,1.155-0.997,3.61,0.703,3.964c0.908-0.885-0.189-3.361,0.704-4.247c1.056,0,2.107,0,3.161,0
			c0.295,1.428,0.558,2.879,0,4.247c2.007-0.082,0.558-2.949,1.409-3.964C35.769,37.976,37.186,39.155,39.371,39.392z M39.721,35.71
			c-0.319-1.25-1.185-2.064-1.403-3.396c-4.512,0.317-9.727,0.094-14.063,0.566c0.146,1.203-0.338,2.915,0.352,3.681
			C29.131,35.863,35.855,36.937,39.721,35.71z M38.318,44.771c-1.012-0.059-1.787,0.072-2.109,0.564
			C37.144,45.337,38.287,45.49,38.318,44.771z M37.26,76.769c-0.207-4.083-0.381-8.39-0.352-11.895
			c-1.728-1.45-6.37-3.42-9.139-1.698c-1.143,0.722-0.5,2.206-1.757,3.114c0.688,2.312,0.732,5.075,0.702,7.646
			c0,0.921-0.716,2.524,0.353,3.113c1.803-2.465,0.029-6.879,0.704-9.627c1.025-4.093,7.163-3.773,8.437-0.565
			C37.247,69.44,34.844,75.068,37.26,76.769z M35.151,76.769c0.205-0.92-0.234-1.322-0.35-1.982c-1.76,0-3.517,0-5.272,0
			c0.16,0.969-0.134,1.593-0.352,2.264C31.108,76.909,33.79,77.357,35.151,76.769z M31.285,45.055
			C29.045,44.723,30.524,45.915,31.285,45.055L31.285,45.055z M27.066,88.942c0.133-1.712-0.088-3.55,0-4.813
			c-0.835-0.461-1.55-1.013-2.459-1.416c-0.293,2.007,0.264,3.988,0.352,5.665c0.073,1.322-0.775,3.032,0.703,3.965
			C27.829,92.542,26.98,90.242,27.066,88.942z M19.685,88.942c0.719-0.554,3.002,0.154,2.46-1.416
			c-1.713-0.849-3.604-0.436-4.922-0.283c1.436,1.699-1.23,3.494,0,5.097c1.786,0.249,2.623-0.097,4.922,0
			c0.118-1.025-0.061-1.84-0.35-2.548C20.549,89.945,19.992,89.559,19.685,88.942z M21.795,75.918
			c0.219-0.672,0.51-1.298,0.35-2.266c-1.127-0.543-2.079-0.59-3.515-0.282c-0.673,0.672,0.308,2.7-1.407,2.549
			c-1.054-0.756-0.263-1.711-0.703-2.549c-1.127-0.46-1.905-0.129-3.163,0c-0.089,1.203,0.322,2.007,0.703,2.832
			C17.313,76.236,19.009,76.474,21.795,75.918z M21.795,86.11c0.687-0.766,0.219-2.478,0.35-3.68c-1.698-0.283-4.117-0.13-5.623,0
			c0,0.282,0,0.565,0,0.851c0.674,0.874,3.236,0.224,4.218,0.849c0.352,1.559-3.939,0.898-4.218,0.282
			c-0.952,0.556-3.063,0.167-3.165,1.418C15.349,86.229,18.763,85.579,21.795,86.11z M22.145,78.749
			c-0.527-0.859,0.118-1.096-0.35-1.699c-2.301-0.012-5.874-0.247-8.438,0.283c0,0.378,0,0.754,0,1.134
			c0.806,0.672,3.412-0.106,4.217,0.565c0.192-0.414-0.409-1.463,0.354-1.416c1.318,0.189-0.264,0.945,1.053,1.133
			C19.583,78.006,20.799,79.149,22.145,78.749z M21.795,70.821c0.35-8.848,0.277-14.229-0.704-21.236
			c-1.112-0.389-1.17-0.06-2.459,0c-0.016,6.984-0.585,13.994,0.351,21.236C20.257,70.917,20.681,71.259,21.795,70.821z
			 M21.795,81.297c0-0.566,0-1.133,0-1.7c-2.931,0.379-3.884,0.296-8.087,0.285c0,1.321,0,2.643,0,3.964c0.703,0,1.405,0,2.108,0
			c-0.132-0.839-0.863-2.054-0.351-2.549C17.575,81.297,19.685,81.297,21.795,81.297z M21.795,48.17
			c-2.228,0.176-4.966-1.003-5.979,0.564C17.839,48.217,20.447,49.502,21.795,48.17z M21.441,34.296
			c-0.13-1.205,0.338-2.916-0.351-3.682c-2.696,0.012-5.287,0.249-7.03,0.284c-0.805,0.484-0.132,2.159-0.351,3.115
			C15.95,34.376,18.734,34.306,21.441,34.296z M18.632,45.903c0.615,0.767,3.661,0.886,3.867-0.284
			C21.912,45.173,18.734,45.031,18.632,45.903z M22.847,41.655c-2.107-0.659-5.74-0.095-8.436-0.281
			c-0.264,0.059-0.41,0.234-0.352,0.565c-0.425,0.059-0.219,0.318,0,0.566C16.961,41.917,21.15,43.533,22.847,41.655z
			 M19.685,38.825c0.675-0.684,0.22-2.278,0.352-3.397c-0.352,0-0.703,0-1.055,0C18.5,36.536,17.708,38.564,19.685,38.825z
			 M21.091,71.953c-1.494-0.27-5.184-0.08-7.03,0.283C16.024,72.614,20.006,72.485,21.091,71.953z M17.575,45.337
			c-1.011,0.037-2.298-0.154-2.812,0.282c-0.029,0.97,1.04,1.051,1.759,1.418C16.858,46.459,17.239,45.915,17.575,45.337z
			 M16.522,68.839c0.425-6.336-0.308-13.013,0-18.971c-0.074-0.226-0.296-0.33-0.703-0.284c-0.016,0.365-0.453,0.391-0.351,0.852
			c-0.192,4.919,0.264,10.794,0,15.573c-0.088,1.697-1.231,3.585,0.351,4.813C17.122,70.704,16.491,69.322,16.522,68.839z
			 M15.819,86.394c-0.717,0.319-1.406,2.703,0.352,2.551C15.716,87.74,17.239,86.701,15.819,86.394z M15.466,38.54
			c0.967-0.316,0.921-2.441,0.351-3.113c-0.468,0-0.935,0-1.405,0C14.515,36.667,14.178,38.259,15.466,38.54z M14.412,92.06
			c-0.029-0.451,0.043-0.982-0.703-0.853c0,0.188,0,0.377,0,0.566C14.061,91.775,14.134,91.998,14.412,92.06z M13.357,70.255
			c1.802-6.29-0.409-15.787,0.352-21.236c-2.503-0.47-3.354-0.104-5.975,0c-0.983-0.531-0.939-3.057-0.354-3.964
			c1.333-0.188,1.333-0.317,2.812,0c-0.044,1.758,0.481,1.617,0,2.832c1.055,0,2.109,0,3.164,0c0.058-1.559,0.043-3.056-0.351-4.248
			c-4.015-1.25-11.044-0.166-14.765-0.283c0,1.605,0,3.209,0,4.814c1.069-0.013,2.315-0.167,2.108,0.85
			c-1.083,0.201-0.674,0.201-1.757,0c-0.321,2.606,0.015,3.491-0.35,5.38c1.07,0.082,1.26,0.872,2.812,0.565
			c0-1.132,0-2.265,0-3.396c1.744,0.034,1.729-0.283,3.164,0c0.234,1.79,0.103,3.892,3.163,3.396
			c0.338-1.959-0.628-3.244,1.055-3.964c1.377-0.165,2.051,0.248,2.812,0.567c-0.408,2.123,0.719,3.021,2.111,3.68
			c-4.643,0.638-9.667,0.565-14.412,0.284c-1.362,5.826-0.352,11.656-0.352,17.838c0,1.662-0.777,4.094,1.056,5.096
			c0.468,0,0.938,0,1.405,0c0.439-3.104-0.029-8.222,2.461-10.477c-1.216-1.665-3.325-2.607-2.812-5.664
			c0.588-1.144,2.521-1.191,3.164-2.265c-0.791-0.215-0.129-1.594-0.352-2.264c0.849-0.357,1.714-0.698,2.811-0.852
			c1.567,0.518,1.817,2.346,1.759,3.398c0.439,1.343,2.284,1.557,2.459,3.114c-0.483,2.242-2.768,3.044-3.513,5.096
			c3.955,2.335-0.353,11.541,4.568,12.743c0.819-3.045-0.572-6.75,0.703-9.629C12.583,71.044,13.18,70.869,13.357,70.255z
			 M11.248,83.847c1.011-0.035,0.645-1.181,0.703-1.983c-0.864-0.032-1.686-0.047-2.11,0.284
			C10.194,82.821,9.959,83.94,11.248,83.847z M11.952,85.545c0.219-1.285-0.776-1.168-1.758-0.851
			C10.033,85.579,10.94,85.604,11.952,85.545z M11.952,88.378c0.044-0.697,0.061-1.369-0.351-1.7c-0.353,0-0.704,0-1.055,0
			C10.415,87.74,10.823,88.341,11.952,88.378z M4.921,79.882c1.127-0.577,1.098,1.121,1.406,0.285
			c-0.483-0.365-0.146-1.395-1.056-1.418C5.169,79.127,4.775,79.294,4.921,79.882z M2.46,77.333
			c1.305-0.602,2.812,0.626,3.517-0.564c-1.744-0.308-1.671-1.168-1.408-2.548c-0.659,0.057-0.775-0.319-1.405-0.284
			C2.563,74.761,2.342,75.905,2.46,77.333z M1.757,85.262c1.29-0.885,1.611-4.399,1.756-7.079c-0.438-0.012-0.482-0.365-1.054-0.281
			C2.401,80.495,1.772,82.619,1.757,85.262z M0,84.979c0.469-1.073,1.201-2.878-0.703-3.115c-0.397,0.814-0.629,1.76-0.705,2.834
			C-0.732,84.638-0.629,85.013,0,84.979z M1.055,79.597c-0.615-0.247-0.894-0.789-2.109-0.564c-0.206,0.673-0.499,1.297-0.353,2.265
			C0.498,81.604,0.585,80.447,1.055,79.597z M-0.703,90.641c0.103-0.39-0.22-1.108-0.352-0.565
			C-1.142,90.466-0.835,91.186-0.703,90.641z"/>
		<path style="fill:#082737;" d="M61.517,70.538c0.674,1.532,0.222,3.976,0.351,5.946c-1.158,0.083-2.87,0.65-3.865,0
			C58.016,73.676,57.007,68.802,61.517,70.538z"/>
		<path style="fill:#082737;" d="M39.019,56.946c-1.348,1.394-5.946,0.461-9.49,0.567c-1.216,0.035-2.183,0.648-3.165,0
			c0.776-1.972,4.527-1.487,7.031-1.418C35.196,56.155,37.583,56.217,39.019,56.946z"/>
		<path style="fill:#082737;" d="M28.123,59.495c0.613-1.555,8.331-2.088,8.086,0C33.806,60.203,29.835,59.473,28.123,59.495z"/>
		<path style="fill:#082737;" d="M20.389,91.209c-1.421,0.424-1.698,0.012-3.165,0.282C17.283,90.122,20.109,89.862,20.389,91.209z"
			/>
		<path style="fill:#082737;" d="M18.632,87.526c1.172-0.353,0.865,1.912,0.351,1.982C17.81,89.862,18.134,87.598,18.632,87.526z"/>
		<path style="fill:#082737;" d="M4.219,47.604c0.439,0.588,2.123,0.176,2.459,0.849c-0.44,1.24-3.676,0.249-5.274,0.566
			c-1.2-1.215-1.317-4.778,2.109-3.965C4.584,45.809,3.677,46.848,4.219,47.604z"/>
	</g>
</g>
<g id="Layer_3">
</g>
<g>
	<path style="fill:#243339;" d="M103.884,71.112v-0.58h4.614v0.58c-0.404,0.1-0.662,0.24-0.773,0.422s-0.167,0.524-0.167,1.028
		c3.334,0.023,5.001,1.348,5.001,3.973c0,2.701-1.667,4.084-5.001,4.148c0,0.545,0.056,0.911,0.167,1.099s0.369,0.331,0.773,0.431
		v0.58h-4.614v-0.58c0.375-0.088,0.625-0.22,0.751-0.396s0.192-0.554,0.198-1.134c-1.617,0-2.864-0.335-3.739-1.007
		c-0.877-0.67-1.314-1.665-1.314-2.983c0-1.301,0.436-2.309,1.305-3.023c0.871-0.715,2.12-1.084,3.749-1.107
		c-0.006-0.545-0.078-0.901-0.216-1.067C104.48,71.327,104.236,71.2,103.884,71.112z M104.833,79.743v-6.223
		c-1.529,0.123-2.294,1.116-2.294,2.979c0,0.973,0.2,1.74,0.602,2.303S104.107,79.679,104.833,79.743z M107.558,73.521v6.223
		c0.709-0.059,1.261-0.354,1.657-0.888c0.395-0.533,0.593-1.225,0.593-2.074C109.808,74.766,109.058,73.679,107.558,73.521z"/>
	<path style="fill:#243339;" d="M118.87,82.793h-4.729v-0.58c0.404-0.1,0.662-0.247,0.773-0.443s0.167-0.594,0.167-1.191v-7.567
		c0-0.604-0.053-0.999-0.158-1.187s-0.366-0.337-0.782-0.448v-0.58h8.499v3.322h-1.204c-0.322-1.037-0.609-1.674-0.861-1.912
		c-0.252-0.236-0.609-0.355-1.072-0.355h-1.696v8.736c0,0.609,0.062,1.014,0.185,1.213s0.416,0.337,0.879,0.413V82.793z"/>
	<path style="fill:#243339;" d="M123.976,82.793v-0.58c0.404-0.1,0.662-0.247,0.773-0.443s0.167-0.591,0.167-1.183v-7.576
		c0-0.604-0.053-0.999-0.158-1.187s-0.366-0.337-0.782-0.448v-0.58h9.255v2.971h-1.204c-0.264-0.82-0.521-1.345-0.769-1.573
		c-0.25-0.229-0.638-0.343-1.165-0.343h-2.452v4.043c0.797-0.076,1.474-0.114,2.03-0.114c1.471,0,2.571,0.281,3.3,0.844
		c0.73,0.563,1.095,1.456,1.095,2.681c0,2.326-1.559,3.489-4.676,3.489H123.976z M127.641,81.738c1.523,0.1,2.522-0.054,2.997-0.461
		s0.712-1.054,0.712-1.938c0-1.623-0.8-2.435-2.399-2.435h-0.308c-0.41,0-0.744,0.018-1.002,0.053V81.738z"/>
	<path style="fill:#243339;" d="M140.992,79.646c-0.533,1.125-1.061,1.966-1.582,2.522s-1.195,0.835-2.021,0.835
		c-0.463,0-1.014-0.085-1.652-0.255v-2.461h1.283c0.029,0.75,0.308,1.125,0.835,1.125c0.633,0,1.21-0.536,1.731-1.608l-3.067-6.653
		c-0.311-0.674-0.559-1.134-0.742-1.38c-0.186-0.246-0.418-0.378-0.699-0.396v-0.58h4.685v0.58
		c-0.451,0.059-0.677,0.281-0.677,0.668c0,0.223,0.155,0.686,0.466,1.389l1.503,3.498l1.441-3.419
		c0.258-0.609,0.387-1.09,0.387-1.441c0-0.439-0.229-0.671-0.686-0.694v-0.58h3.48v0.58c-0.328,0.07-0.619,0.271-0.875,0.602
		c-0.254,0.332-0.549,0.816-0.883,1.455L140.992,79.646z"/>
	<path style="fill:#243339;" d="M154.325,80.596c0,0.387,0.015,0.661,0.044,0.822s0.077,0.289,0.146,0.387
		c0.066,0.096,0.163,0.177,0.289,0.241s0.321,0.12,0.585,0.167v0.58h-4.729v-0.58c0.217-0.059,0.388-0.121,0.515-0.189
		c0.125-0.066,0.219-0.16,0.281-0.281c0.061-0.119,0.101-0.271,0.118-0.457c0.018-0.184,0.026-0.417,0.026-0.698v-7.576
		c0-0.275-0.008-0.507-0.021-0.694c-0.016-0.188-0.053-0.34-0.115-0.457c-0.061-0.117-0.155-0.212-0.281-0.286
		c-0.126-0.072-0.3-0.139-0.522-0.197v-0.58h5.106c1.482,0,2.593,0.266,3.331,0.795c0.738,0.531,1.107,1.347,1.107,2.448
		c0,0.779-0.173,1.456-0.519,2.03s-0.847,1.01-1.503,1.305c-0.656,0.297-1.477,0.444-2.461,0.444c-0.568,0-1.034-0.012-1.397-0.035
		V80.596z M154.325,76.79h0.756c0.586,0,1.052-0.084,1.397-0.25c0.346-0.168,0.603-0.433,0.769-0.796
		c0.168-0.363,0.251-0.853,0.251-1.468c0-0.609-0.083-1.094-0.251-1.455c-0.166-0.359-0.411-0.616-0.733-0.769
		s-0.735-0.229-1.239-0.229c-0.41,0-0.727,0.006-0.949,0.018V76.79z"/>
	<path style="fill:#243339;" d="M172.07,80.587c0,0.451,0.019,0.761,0.058,0.927c0.037,0.168,0.115,0.307,0.232,0.418
		s0.331,0.205,0.642,0.281v0.58h-4.588v-0.58c0.34-0.088,0.56-0.176,0.659-0.264s0.17-0.212,0.211-0.373s0.062-0.491,0.062-0.989
		v-3.524h-3.973v3.524c0,0.205,0.006,0.396,0.018,0.571s0.035,0.319,0.07,0.431s0.086,0.205,0.153,0.281s0.16,0.143,0.277,0.198
		s0.261,0.104,0.431,0.145v0.58h-4.614v-0.58c0.217-0.059,0.388-0.121,0.514-0.189c0.126-0.066,0.221-0.16,0.281-0.281
		c0.063-0.119,0.102-0.271,0.119-0.457c0.018-0.184,0.026-0.417,0.026-0.698v-7.576c0-0.275-0.008-0.507-0.022-0.694
		s-0.053-0.34-0.113-0.457c-0.063-0.117-0.156-0.212-0.281-0.286c-0.127-0.072-0.301-0.139-0.523-0.197v-0.58h4.614v0.58
		c-0.311,0.088-0.522,0.185-0.638,0.29c-0.113,0.105-0.194,0.245-0.241,0.417c-0.047,0.174-0.07,0.485-0.07,0.937v2.936h3.973V73.02
		c0-0.445-0.02-0.755-0.058-0.927c-0.038-0.174-0.113-0.314-0.229-0.422c-0.113-0.109-0.329-0.207-0.646-0.295v-0.58h4.588v0.58
		c-0.258,0.07-0.445,0.145-0.563,0.225c-0.117,0.078-0.201,0.18-0.251,0.303s-0.082,0.261-0.096,0.413
		c-0.016,0.152-0.022,0.387-0.022,0.703V80.587z"/>
	<path style="fill:#243339;" d="M179.163,70.796v0.58c-0.275,0.029-0.471,0.092-0.584,0.189c-0.115,0.096-0.172,0.244-0.172,0.443
		c0,0.1,0.021,0.213,0.062,0.338c0.041,0.127,0.108,0.277,0.202,0.453s0.252,0.451,0.475,0.826l0.817,1.362l1.063-1.564
		c0.234-0.346,0.391-0.61,0.471-0.796c0.078-0.184,0.118-0.382,0.118-0.593c0-0.188-0.064-0.339-0.193-0.452
		c-0.129-0.115-0.308-0.184-0.536-0.207v-0.58h3.63v0.589c-0.17,0.047-0.331,0.122-0.483,0.224c-0.152,0.104-0.328,0.273-0.527,0.51
		c-0.199,0.238-0.519,0.67-0.958,1.297l-1.898,2.707l2.865,4.729c0.1,0.158,0.2,0.315,0.304,0.47
		c0.102,0.156,0.201,0.294,0.299,0.414c0.096,0.12,0.181,0.209,0.254,0.268s0.146,0.104,0.216,0.137s0.144,0.057,0.22,0.074v0.58
		h-4.887v-0.58c0.258-0.029,0.448-0.091,0.571-0.185s0.185-0.243,0.185-0.448c0-0.07-0.011-0.146-0.031-0.229
		s-0.056-0.182-0.105-0.299s-0.1-0.221-0.148-0.313c-0.051-0.09-0.151-0.265-0.304-0.522l-1.222-2.013l-1.433,2.118
		c-0.111,0.17-0.205,0.325-0.281,0.466s-0.129,0.27-0.158,0.387s-0.044,0.255-0.044,0.413s0.063,0.296,0.189,0.413
		c0.125,0.117,0.306,0.188,0.54,0.211v0.58h-3.639v-0.58c0.193-0.059,0.37-0.147,0.532-0.268c0.16-0.12,0.336-0.295,0.527-0.523
		c0.189-0.229,0.452-0.583,0.786-1.063l2.294-3.287l-2.215-3.683c-0.24-0.398-0.447-0.729-0.619-0.993
		c-0.174-0.264-0.318-0.465-0.436-0.602c-0.117-0.139-0.222-0.236-0.313-0.295s-0.197-0.1-0.32-0.123v-0.58H179.163z"/>
	<path style="fill:#243339;" d="M196.372,80.587c0,0.592,0.051,0.986,0.154,1.183c0.102,0.196,0.361,0.344,0.777,0.443v0.58h-4.588
		v-0.58c0.422-0.1,0.683-0.235,0.782-0.408s0.149-0.579,0.149-1.218V77.15c0-1.037,0.026-1.825,0.079-2.364h-0.053l-4.175,5.801
		c0,0.58,0.054,0.972,0.162,1.173c0.108,0.203,0.371,0.354,0.787,0.453v0.58h-4.614v-0.58c0.404-0.1,0.662-0.247,0.773-0.443
		s0.167-0.591,0.167-1.183v-7.576c0-0.604-0.053-0.999-0.158-1.187s-0.366-0.337-0.782-0.448v-0.58h4.614v0.58
		c-0.416,0.117-0.679,0.272-0.787,0.466s-0.162,0.586-0.162,1.178v3.867c0,0.732-0.021,1.31-0.062,1.731h0.053l4.157-5.81
		c0-0.492-0.053-0.827-0.158-1.007c-0.105-0.178-0.363-0.32-0.773-0.426v-0.58h4.588v0.58c-0.41,0.111-0.668,0.262-0.773,0.453
		c-0.105,0.189-0.158,0.587-0.158,1.19V80.587z"/>
	<path style="fill:#243339;" d="M211.849,80.631c0,0.615,0.065,1.014,0.198,1.195c0.131,0.182,0.361,0.311,0.689,0.387v0.58h-4.263
		v-0.58c0.334-0.064,0.557-0.209,0.668-0.436c0.111-0.225,0.167-0.607,0.167-1.146v-3.393l-3.006,3.876
		c0,0.645,0.27,1.011,0.809,1.099v0.58h-4.236v-0.58c0.375-0.088,0.612-0.244,0.712-0.471c0.1-0.225,0.149-0.713,0.149-1.463v-3.674
		c0-0.826-0.059-1.335-0.176-1.524c-0.117-0.191-0.346-0.333-0.686-0.427v-0.58h4.236v0.58c-0.363,0.088-0.594,0.245-0.689,0.47
		c-0.098,0.227-0.146,0.72-0.146,1.481v2.944l2.997-3.867c0-0.586-0.267-0.929-0.8-1.028v-0.58h4.245v0.58
		c-0.393,0.117-0.636,0.278-0.729,0.483s-0.141,0.697-0.141,1.477V80.631z"/>
	<path style="fill:#243339;" d="M221.543,74.074h3.823v0.58c-0.369,0.064-0.604,0.206-0.703,0.427
		c-0.1,0.219-0.149,0.687-0.149,1.401v3.92c0,0.691,0.047,1.145,0.141,1.357c0.094,0.215,0.328,0.365,0.703,0.453v0.58h-4.104v-0.58
		c0.375-0.088,0.61-0.235,0.708-0.443c0.096-0.208,0.145-0.664,0.145-1.367v-2.347c0-0.586,0.015-1.318,0.044-2.197h-0.105
		c-0.223,0.668-0.489,1.368-0.8,2.101l-1.441,3.489h-1.415l-1.38-3.428c-0.328-0.814-0.586-1.535-0.773-2.162h-0.114
		c0.041,0.598,0.062,1.298,0.062,2.101v2.443c0,0.697,0.049,1.151,0.145,1.362c0.098,0.211,0.33,0.36,0.699,0.448v0.58h-2.918v-0.58
		c0.375-0.088,0.611-0.235,0.707-0.443c0.098-0.208,0.146-0.664,0.146-1.367v-3.929c0-0.715-0.048-1.181-0.146-1.397
		c-0.096-0.217-0.329-0.357-0.698-0.422v-0.58h3.885l1.67,4.755L221.543,74.074z"/>
	<path style="fill:#243339;" d="M239.359,80.253c0,0.75,0.051,1.242,0.153,1.477s0.339,0.396,0.708,0.483v0.58h-4.245v-0.58
		c0.346-0.082,0.572-0.231,0.682-0.448c0.107-0.217,0.162-0.721,0.162-1.512v-5.168h-2.575v5.168c0,0.756,0.048,1.25,0.146,1.481
		c0.096,0.231,0.332,0.391,0.707,0.479v0.58h-4.263v-0.58c0.381-0.088,0.621-0.247,0.721-0.479s0.149-0.726,0.149-1.481v-3.639
		c0-0.756-0.047-1.244-0.141-1.463c-0.094-0.221-0.337-0.386-0.729-0.497v-0.58h9.387v0.58c-0.381,0.1-0.62,0.263-0.716,0.487
		c-0.098,0.227-0.146,0.717-0.146,1.473V80.253z"/>
	<path style="fill:#243339;" d="M244.949,84.366c0,0.439,0.023,0.75,0.07,0.932s0.13,0.325,0.251,0.431
		c0.119,0.105,0.332,0.193,0.637,0.264v0.58h-4.377v-0.58c0.275-0.082,0.467-0.173,0.576-0.272c0.107-0.1,0.186-0.239,0.232-0.417
		c0.047-0.18,0.07-0.491,0.07-0.937v-7.69c0-0.416-0.004-0.712-0.014-0.888c-0.008-0.176-0.029-0.325-0.061-0.448
		c-0.033-0.123-0.078-0.224-0.137-0.304c-0.059-0.078-0.145-0.147-0.26-0.206c-0.113-0.059-0.282-0.111-0.505-0.158v-0.598
		l2.435-0.07h1.081l-0.132,1.274l0.105,0.026c0.504-0.486,0.974-0.837,1.41-1.05c0.437-0.215,0.887-0.321,1.35-0.321
		c1.043,0,1.825,0.368,2.347,1.103c0.521,0.736,0.782,1.836,0.782,3.301c0,1.014-0.154,1.862-0.461,2.544
		c-0.309,0.684-0.767,1.195-1.376,1.539c-0.609,0.342-1.359,0.514-2.25,0.514c-0.604,0-1.195-0.076-1.775-0.229V84.366z
		 M244.949,79.91c0,0.721,0.124,1.252,0.374,1.596c0.248,0.342,0.634,0.514,1.155,0.514c0.539,0,0.95-0.282,1.235-0.848
		c0.283-0.565,0.426-1.373,0.426-2.422c0-1.166-0.127-2.03-0.383-2.593c-0.254-0.563-0.651-0.844-1.19-0.844
		c-0.264,0-0.521,0.067-0.769,0.202c-0.25,0.135-0.453,0.327-0.611,0.575c-0.158,0.25-0.237,0.529-0.237,0.84V79.91z"/>
	<path style="fill:#243339;" d="M256.673,82.934c-0.861,0-1.604-0.15-2.228-0.453c-0.625-0.301-1.112-0.784-1.464-1.449
		s-0.527-1.511-0.527-2.536c0-0.785,0.108-1.465,0.325-2.039s0.519-1.049,0.905-1.424s0.849-0.652,1.384-0.83
		c0.537-0.18,1.118-0.269,1.745-0.269c1.418,0,2.487,0.374,3.208,1.12c0.721,0.748,1.081,1.842,1.081,3.283
		c0,1.02-0.179,1.874-0.536,2.562c-0.357,0.689-0.867,1.2-1.529,1.534S257.587,82.934,256.673,82.934z M255.126,78.302
		c0,1.242,0.139,2.173,0.417,2.79c0.278,0.619,0.699,0.928,1.262,0.928c0.311,0,0.569-0.079,0.777-0.237s0.375-0.387,0.502-0.686
		c0.125-0.299,0.215-0.657,0.268-1.077c0.053-0.419,0.079-0.889,0.079-1.41c0-1.26-0.14-2.202-0.417-2.825
		c-0.279-0.625-0.69-0.937-1.235-0.937c-0.398,0-0.718,0.126-0.958,0.378s-0.416,0.63-0.527,1.134S255.126,77.511,255.126,78.302z"
		/>
	<path style="fill:#243339;" d="M269.927,82.925v1.441c0,0.65,0.065,1.062,0.198,1.235c0.131,0.172,0.385,0.303,0.76,0.391v0.58
		h-4.377v-0.58c0.352-0.094,0.586-0.236,0.703-0.426c0.117-0.191,0.176-0.591,0.176-1.2v-1.433
		c-1.529-0.023-2.701-0.419-3.516-1.187s-1.222-1.846-1.222-3.234c0-1.406,0.419-2.511,1.257-3.313s1.998-1.222,3.48-1.257v-0.703
		c0-0.99-0.052-1.604-0.154-1.842c-0.103-0.236-0.382-0.399-0.839-0.487v-0.58l2.452-0.123h1.081v3.727
		c1.482,0.012,2.638,0.405,3.468,1.183c0.828,0.775,1.243,1.85,1.243,3.221c0,1.418-0.406,2.526-1.218,3.327
		C272.609,82.463,271.445,82.884,269.927,82.925z M267.387,81.932v-6.952c-1.377,0.076-2.065,1.187-2.065,3.331
		C265.322,80.596,266.01,81.803,267.387,81.932z M269.927,74.971v6.961c1.359-0.117,2.039-1.228,2.039-3.331
		C271.966,76.274,271.287,75.064,269.927,74.971z"/>
	<path style="fill:#243339;" d="M278.655,80.139v2.654h-2.364v-2.654H278.655z"/>
	<path style="fill:#243339;" d="M295.398,71.376c-0.41,0.111-0.668,0.262-0.773,0.453c-0.105,0.189-0.158,0.587-0.158,1.19v7.567
		c0,0.592,0.051,0.986,0.153,1.183s0.362,0.344,0.778,0.443v0.58h-4.588v-0.58c0.422-0.1,0.683-0.235,0.782-0.408
		s0.149-0.579,0.149-1.218v-8.684h-3.709v8.684c0,0.58,0.054,0.972,0.163,1.173c0.107,0.203,0.37,0.354,0.786,0.453v0.58h-4.614
		v-0.58c0.404-0.1,0.662-0.247,0.773-0.443s0.167-0.591,0.167-1.183v-7.576c0-0.604-0.053-0.999-0.158-1.187
		s-0.366-0.337-0.782-0.448v-0.58h11.03V71.376z"/>
	<path style="fill:#243339;" d="M301.269,82.934c-0.861,0-1.604-0.15-2.228-0.453c-0.625-0.301-1.112-0.784-1.464-1.449
		s-0.527-1.511-0.527-2.536c0-0.785,0.108-1.465,0.325-2.039s0.519-1.049,0.905-1.424s0.849-0.652,1.384-0.83
		c0.537-0.18,1.118-0.269,1.745-0.269c1.418,0,2.487,0.374,3.208,1.12c0.721,0.748,1.081,1.842,1.081,3.283
		c0,1.02-0.179,1.874-0.536,2.562c-0.357,0.689-0.867,1.2-1.529,1.534S302.183,82.934,301.269,82.934z M299.722,78.302
		c0,1.242,0.139,2.173,0.417,2.79c0.278,0.619,0.699,0.928,1.262,0.928c0.311,0,0.569-0.079,0.777-0.237s0.375-0.387,0.502-0.686
		c0.125-0.299,0.215-0.657,0.268-1.077c0.053-0.419,0.079-0.889,0.079-1.41c0-1.26-0.14-2.202-0.417-2.825
		c-0.279-0.625-0.69-0.937-1.235-0.937c-0.398,0-0.718,0.126-0.958,0.378s-0.416,0.63-0.527,1.134S299.722,77.511,299.722,78.302z"
		/>
	<path style="fill:#243339;" d="M312.378,82.793v-0.58c0.328-0.023,0.569-0.138,0.726-0.343c0.154-0.205,0.232-0.618,0.232-1.239
		v-5.546h-1.714c-0.193,1.934-0.489,3.533-0.888,4.799s-0.826,2.092-1.283,2.479s-0.996,0.58-1.617,0.58
		c-0.381,0-0.768-0.059-1.16-0.176v-2.021h1.055c0.035,0.51,0.226,0.765,0.571,0.765c0.498,0,0.946-0.753,1.345-2.259
		s0.598-2.637,0.598-3.393c0-0.457-0.079-0.764-0.237-0.918c-0.158-0.156-0.36-0.251-0.606-0.286v-0.589h7.418v0.589
		c-0.375,0.053-0.626,0.185-0.752,0.396s-0.188,0.601-0.188,1.169v4.412c0,0.621,0.07,1.025,0.211,1.213s0.384,0.311,0.729,0.369
		v0.58H312.378z"/>
	<path style="fill:#243339;" d="M326.168,81.193c-0.598,0.633-1.189,1.081-1.775,1.345s-1.26,0.396-2.021,0.396
		c-1.365,0-2.393-0.373-3.08-1.121c-0.689-0.746-1.033-1.855-1.033-3.326c0-0.949,0.177-1.769,0.531-2.456
		c0.354-0.689,0.857-1.211,1.508-1.564c0.65-0.355,1.406-0.532,2.268-0.532c0.533,0,1,0.062,1.402,0.185
		c0.4,0.123,0.745,0.295,1.032,0.514c0.287,0.221,0.524,0.485,0.712,0.796c0.223,0.369,0.39,0.791,0.501,1.266
		c0.117,0.486,0.179,1.075,0.185,1.767h-5.572c0.006,1.061,0.194,1.841,0.566,2.343c0.372,0.5,0.939,0.751,1.701,0.751
		c0.445,0,0.847-0.083,1.204-0.251c0.357-0.166,0.744-0.461,1.16-0.883L326.168,81.193z M323.795,77.511
		c-0.023-0.896-0.141-1.564-0.352-2.004s-0.551-0.659-1.02-0.659c-0.451,0-0.811,0.229-1.076,0.686
		c-0.268,0.457-0.427,1.116-0.479,1.978H323.795z"/>
	<path style="fill:#243339;" d="M336.566,80.692c0,0.545,0.065,0.922,0.198,1.13c0.131,0.208,0.382,0.338,0.751,0.391v0.58h-4.333
		v-0.58c0.352-0.053,0.58-0.189,0.686-0.408c0.105-0.221,0.158-0.591,0.158-1.112v-1.819h-2.892v1.819
		c0,0.592,0.062,0.981,0.185,1.169s0.346,0.305,0.668,0.352v0.58h-4.333v-0.58c0.363-0.053,0.61-0.182,0.743-0.387
		c0.131-0.205,0.197-0.583,0.197-1.134v-4.518c0-0.633-0.074-1.031-0.225-1.195c-0.148-0.164-0.388-0.272-0.716-0.325v-0.58h4.324
		v0.58c-0.34,0.047-0.565,0.17-0.677,0.369s-0.167,0.583-0.167,1.151v1.564h2.892v-1.564c0-0.639-0.066-1.043-0.197-1.213
		c-0.133-0.17-0.351-0.272-0.655-0.308v-0.58h4.342v0.58c-0.369,0.053-0.62,0.187-0.751,0.399c-0.133,0.215-0.198,0.588-0.198,1.121
		V80.692z"/>
	<path style="fill:#243339;" d="M343.175,82.934c-0.861,0-1.604-0.15-2.228-0.453c-0.625-0.301-1.112-0.784-1.464-1.449
		s-0.527-1.511-0.527-2.536c0-0.785,0.108-1.465,0.325-2.039s0.519-1.049,0.905-1.424s0.849-0.652,1.384-0.83
		c0.537-0.18,1.118-0.269,1.745-0.269c1.418,0,2.487,0.374,3.208,1.12c0.721,0.748,1.081,1.842,1.081,3.283
		c0,1.02-0.179,1.874-0.536,2.562c-0.357,0.689-0.867,1.2-1.529,1.534S344.089,82.934,343.175,82.934z M341.628,78.302
		c0,1.242,0.139,2.173,0.417,2.79c0.278,0.619,0.699,0.928,1.262,0.928c0.311,0,0.569-0.079,0.777-0.237s0.375-0.387,0.502-0.686
		c0.125-0.299,0.215-0.657,0.268-1.077c0.053-0.419,0.079-0.889,0.079-1.41c0-1.26-0.14-2.202-0.417-2.825
		c-0.279-0.625-0.69-0.937-1.235-0.937c-0.398,0-0.718,0.126-0.958,0.378s-0.416,0.63-0.527,1.134S341.628,77.511,341.628,78.302z"
		/>
	<path style="fill:#243339;" d="M349.046,82.793v-0.58c0.381-0.064,0.638-0.194,0.769-0.391c0.133-0.196,0.198-0.591,0.198-1.183
		v-4.403c0-0.609-0.064-1.015-0.193-1.218c-0.129-0.201-0.387-0.323-0.773-0.364v-0.58h5.229c1.107,0,1.935,0.146,2.482,0.439
		s0.822,0.812,0.822,1.556c0,0.516-0.189,0.959-0.566,1.332c-0.379,0.371-0.931,0.622-1.657,0.751v0.088
		c1.547,0.258,2.32,0.973,2.32,2.145c0,1.605-1.154,2.408-3.463,2.408H349.046z M352.553,75.032v2.733h0.905
		c0.979,0,1.468-0.475,1.468-1.424c0-0.551-0.169-0.925-0.506-1.12C354.083,75.024,353.461,74.962,352.553,75.032z M352.553,78.776
		v3.041c0.264,0.023,0.551,0.035,0.861,0.035c1.049,0,1.573-0.521,1.573-1.564c0-1.008-0.504-1.512-1.512-1.512H352.553z"/>
	<path style="fill:#243339;" d="M364.375,81.642l-0.132-0.044c-0.48,0.469-0.948,0.809-1.402,1.02s-0.936,0.316-1.445,0.316
		c-0.504,0-0.942-0.092-1.314-0.277c-0.372-0.184-0.653-0.44-0.844-0.769s-0.285-0.706-0.285-1.134c0-0.861,0.423-1.54,1.27-2.034
		c0.847-0.496,2.132-0.808,3.854-0.937v-0.835c0-0.545-0.062-0.965-0.185-1.262c-0.123-0.295-0.281-0.504-0.475-0.623
		c-0.193-0.121-0.425-0.181-0.694-0.181s-0.503,0.047-0.698,0.141c-0.197,0.094-0.374,0.271-0.532,0.532
		c-0.158,0.26-0.275,0.622-0.352,1.085h-1.661v-1.6c0.539-0.24,0.987-0.425,1.345-0.554s0.71-0.236,1.06-0.32
		c0.348-0.086,0.66-0.146,0.936-0.181s0.551-0.053,0.826-0.053c0.709,0,1.275,0.094,1.701,0.281
		c0.424,0.188,0.742,0.492,0.953,0.914s0.316,1.005,0.316,1.749v3.428c0,0.387,0.009,0.686,0.026,0.896s0.045,0.368,0.083,0.47
		c0.038,0.104,0.087,0.186,0.146,0.246c0.059,0.063,0.13,0.112,0.216,0.15c0.084,0.038,0.244,0.086,0.479,0.145v0.58h-3.27
		L364.375,81.642z M364.084,78.645c-0.908,0.023-1.581,0.193-2.018,0.51s-0.654,0.779-0.654,1.389c0,0.363,0.1,0.641,0.299,0.83
		c0.199,0.191,0.475,0.286,0.826,0.286c0.27,0,0.524-0.071,0.765-0.216c0.24-0.143,0.431-0.335,0.571-0.575s0.211-0.495,0.211-0.765
		V78.645z"/>
</g>
<g>
	<path style="fill:#008CBA;" d="M77.55,41.891c0,0.205,0.006,0.396,0.018,0.571s0.035,0.319,0.07,0.431s0.086,0.205,0.153,0.281
		s0.16,0.143,0.277,0.198s0.261,0.104,0.431,0.145v0.58h-4.614v-0.58c0.217-0.059,0.388-0.121,0.514-0.189
		c0.126-0.066,0.221-0.16,0.281-0.281c0.063-0.119,0.102-0.271,0.119-0.457c0.018-0.184,0.026-0.417,0.026-0.698v-7.585
		c0-0.281-0.008-0.513-0.022-0.694s-0.053-0.333-0.113-0.453c-0.063-0.12-0.156-0.215-0.281-0.286
		c-0.127-0.07-0.301-0.135-0.523-0.193V32.1H78.5v0.58c-0.24,0.064-0.417,0.133-0.532,0.207c-0.113,0.073-0.2,0.163-0.259,0.268
		s-0.1,0.243-0.123,0.413s-0.035,0.419-0.035,0.747V41.891z"/>
	<path style="fill:#008CBA;" d="M87.667,34.982c0.088-0.246,0.156-0.478,0.207-0.694c0.049-0.217,0.074-0.445,0.074-0.686
		c0-0.287-0.074-0.507-0.225-0.659c-0.148-0.152-0.379-0.24-0.689-0.264V32.1h3.788v0.58c-0.223,0.035-0.412,0.107-0.567,0.215
		s-0.296,0.264-0.422,0.466s-0.273,0.532-0.443,0.989l-3.683,9.809h-2.03l-2.9-9.844c-0.129-0.439-0.237-0.751-0.325-0.936
		s-0.202-0.334-0.343-0.448s-0.337-0.198-0.589-0.25V32.1h4.86v0.58c-0.305,0.035-0.53,0.12-0.677,0.255s-0.22,0.325-0.22,0.571
		c0,0.193,0.018,0.382,0.053,0.567s0.108,0.479,0.22,0.883l1.74,6.311L87.667,34.982z"/>
	<path style="fill:#008CBA;" d="M104.269,41.996c0,0.545,0.065,0.922,0.198,1.13c0.131,0.208,0.382,0.338,0.751,0.391v0.58h-4.333
		v-0.58c0.352-0.053,0.58-0.189,0.686-0.408c0.105-0.221,0.158-0.591,0.158-1.112v-1.819h-2.892v1.819
		c0,0.592,0.062,0.981,0.185,1.169s0.346,0.305,0.668,0.352v0.58h-4.333v-0.58c0.363-0.053,0.61-0.182,0.743-0.387
		c0.131-0.205,0.197-0.583,0.197-1.134v-4.518c0-0.633-0.074-1.031-0.225-1.195c-0.148-0.164-0.388-0.272-0.716-0.325v-0.58h4.324
		v0.58c-0.34,0.047-0.565,0.17-0.677,0.369s-0.167,0.583-0.167,1.151v1.564h2.892v-1.564c0-0.639-0.066-1.043-0.197-1.213
		c-0.133-0.17-0.351-0.272-0.655-0.308v-0.58h4.342v0.58c-0.369,0.053-0.62,0.186-0.751,0.4c-0.133,0.213-0.198,0.587-0.198,1.12
		V41.996z"/>
	<path style="fill:#008CBA;" d="M114.57,42.497c-0.598,0.633-1.189,1.081-1.775,1.345s-1.26,0.396-2.021,0.396
		c-1.365,0-2.393-0.373-3.081-1.121c-0.688-0.746-1.032-1.855-1.032-3.326c0-0.949,0.177-1.768,0.532-2.457
		c0.354-0.688,0.856-1.209,1.507-1.564c0.65-0.354,1.406-0.531,2.268-0.531c0.533,0,1,0.062,1.401,0.185s0.746,0.294,1.033,0.515
		c0.287,0.219,0.524,0.484,0.712,0.795c0.223,0.369,0.39,0.791,0.501,1.266c0.117,0.486,0.179,1.075,0.185,1.767h-5.572
		c0.006,1.061,0.194,1.841,0.567,2.343c0.371,0.5,0.938,0.751,1.7,0.751c0.445,0,0.847-0.083,1.204-0.251
		c0.357-0.166,0.744-0.461,1.16-0.883L114.57,42.497z M112.197,38.814c-0.023-0.896-0.141-1.564-0.352-2.004
		s-0.551-0.659-1.02-0.659c-0.451,0-0.811,0.229-1.077,0.686s-0.426,1.116-0.479,1.978H112.197z"/>
	<path style="fill:#008CBA;" d="M125.143,41.935c0,0.615,0.066,1.014,0.197,1.195c0.133,0.182,0.362,0.311,0.69,0.387v0.58h-4.263
		v-0.58c0.334-0.064,0.557-0.209,0.668-0.436c0.111-0.225,0.167-0.607,0.167-1.146v-3.393l-3.006,3.876
		c0,0.645,0.27,1.011,0.809,1.099v0.58h-4.236v-0.58c0.375-0.088,0.612-0.244,0.712-0.471c0.1-0.225,0.149-0.713,0.149-1.463v-3.674
		c0-0.826-0.059-1.334-0.176-1.525c-0.117-0.189-0.346-0.332-0.686-0.426v-0.58h4.236v0.58c-0.363,0.088-0.593,0.244-0.69,0.471
		c-0.096,0.225-0.145,0.719-0.145,1.48v2.944l2.997-3.867c0-0.586-0.267-0.929-0.8-1.028v-0.58h4.245v0.58
		c-0.393,0.117-0.636,0.278-0.729,0.483s-0.141,0.697-0.141,1.477V41.935z M124.247,32.144c0,0.656-0.29,1.167-0.87,1.534
		s-1.356,0.549-2.329,0.549c-2.074,0-3.111-0.694-3.111-2.083v-0.536h1.793v0.457c0,0.879,0.445,1.318,1.336,1.318
		c0.51,0,0.867-0.108,1.072-0.325s0.308-0.548,0.308-0.993v-0.457h1.802V32.144z"/>
	<path style="fill:#008CBA;" d="M130.803,45.67c0,0.439,0.023,0.75,0.07,0.932s0.13,0.325,0.25,0.431s0.333,0.193,0.638,0.264v0.58
		h-4.377v-0.58c0.275-0.082,0.467-0.173,0.575-0.272s0.187-0.239,0.233-0.417c0.047-0.18,0.07-0.491,0.07-0.937v-7.69
		c0-0.416-0.005-0.712-0.013-0.888c-0.01-0.176-0.03-0.325-0.063-0.448s-0.077-0.225-0.136-0.303
		c-0.059-0.08-0.146-0.148-0.259-0.207c-0.115-0.059-0.283-0.111-0.506-0.158v-0.598l2.435-0.07h1.081l-0.132,1.274l0.105,0.026
		c0.504-0.486,0.974-0.836,1.411-1.051c0.436-0.213,0.886-0.32,1.349-0.32c1.043,0,1.825,0.367,2.347,1.104
		c0.521,0.734,0.782,1.835,0.782,3.3c0,1.014-0.153,1.862-0.462,2.544c-0.307,0.684-0.766,1.195-1.375,1.539
		c-0.609,0.342-1.359,0.514-2.25,0.514c-0.604,0-1.195-0.076-1.775-0.229V45.67z M130.803,41.214c0,0.721,0.124,1.252,0.373,1.596
		c0.249,0.342,0.635,0.514,1.156,0.514c0.539,0,0.95-0.282,1.234-0.848s0.427-1.373,0.427-2.422c0-1.166-0.128-2.03-0.382-2.593
		c-0.256-0.563-0.652-0.844-1.191-0.844c-0.264,0-0.521,0.067-0.77,0.202s-0.452,0.326-0.61,0.576
		c-0.158,0.248-0.237,0.528-0.237,0.839V41.214z"/>
	<path style="fill:#008CBA;" d="M142.528,44.237c-0.861,0-1.604-0.15-2.229-0.453c-0.623-0.301-1.111-0.784-1.463-1.449
		s-0.527-1.511-0.527-2.536c0-0.785,0.108-1.465,0.325-2.039s0.519-1.049,0.905-1.424s0.848-0.651,1.385-0.831
		c0.535-0.178,1.117-0.268,1.744-0.268c1.418,0,2.487,0.373,3.208,1.121c0.721,0.746,1.081,1.841,1.081,3.282
		c0,1.02-0.179,1.874-0.536,2.562c-0.357,0.689-0.867,1.2-1.529,1.534S143.442,44.237,142.528,44.237z M140.981,39.605
		c0,1.242,0.139,2.173,0.418,2.79c0.277,0.619,0.698,0.928,1.261,0.928c0.311,0,0.569-0.079,0.778-0.237
		c0.207-0.158,0.374-0.387,0.5-0.686s0.216-0.657,0.269-1.077c0.053-0.418,0.079-0.889,0.079-1.41c0-1.26-0.14-2.201-0.418-2.826
		c-0.278-0.623-0.689-0.936-1.234-0.936c-0.398,0-0.718,0.126-0.958,0.378s-0.416,0.63-0.527,1.134S140.981,38.814,140.981,39.605z"
		/>
	<path style="fill:#008CBA;" d="M152.776,44.237c-0.861,0-1.604-0.15-2.229-0.453c-0.623-0.301-1.111-0.784-1.463-1.449
		s-0.527-1.511-0.527-2.536c0-0.785,0.108-1.465,0.325-2.039s0.519-1.049,0.905-1.424s0.848-0.651,1.385-0.831
		c0.535-0.178,1.117-0.268,1.744-0.268c1.418,0,2.487,0.373,3.208,1.121c0.721,0.746,1.081,1.841,1.081,3.282
		c0,1.02-0.179,1.874-0.536,2.562c-0.357,0.689-0.867,1.2-1.529,1.534S153.69,44.237,152.776,44.237z M151.229,39.605
		c0,1.242,0.139,2.173,0.418,2.79c0.277,0.619,0.698,0.928,1.261,0.928c0.311,0,0.569-0.079,0.778-0.237
		c0.207-0.158,0.374-0.387,0.5-0.686s0.216-0.657,0.269-1.077c0.053-0.418,0.079-0.889,0.079-1.41c0-1.26-0.14-2.201-0.418-2.826
		c-0.278-0.623-0.689-0.936-1.234-0.936c-0.398,0-0.718,0.126-0.958,0.378s-0.416,0.63-0.527,1.134S151.229,38.814,151.229,39.605z"
		/>
	<path style="fill:#008CBA;" d="M167.559,41.996c0,0.545,0.066,0.922,0.197,1.13c0.133,0.208,0.383,0.338,0.752,0.391v0.58h-4.333
		v-0.58c0.352-0.053,0.58-0.189,0.686-0.408c0.105-0.221,0.158-0.591,0.158-1.112v-1.819h-2.892v1.819
		c0,0.592,0.062,0.981,0.185,1.169s0.346,0.305,0.668,0.352v0.58h-4.333v-0.58c0.363-0.053,0.611-0.182,0.742-0.387
		c0.133-0.205,0.198-0.583,0.198-1.134v-4.518c0-0.633-0.075-1.031-0.224-1.195c-0.15-0.164-0.389-0.272-0.717-0.325v-0.58h4.324
		v0.58c-0.34,0.047-0.565,0.17-0.677,0.369s-0.167,0.583-0.167,1.151v1.564h2.892v-1.564c0-0.639-0.065-1.043-0.198-1.213
		c-0.131-0.17-0.35-0.272-0.654-0.308v-0.58h4.342v0.58c-0.369,0.053-0.619,0.186-0.752,0.4c-0.131,0.213-0.197,0.587-0.197,1.12
		V41.996z"/>
	<path style="fill:#008CBA;" d="M170.732,37.479c0-0.539-0.064-0.911-0.193-1.116s-0.378-0.34-0.747-0.404v-0.58h4.324v0.58
		c-0.311,0.053-0.529,0.18-0.654,0.383c-0.127,0.201-0.189,0.581-0.189,1.138v1.705h0.167c0.504,0,0.917-0.124,1.239-0.374
		c0.322-0.248,0.618-0.698,0.888-1.349c0.422-1.014,0.826-1.638,1.213-1.872s0.894-0.352,1.521-0.352
		c0.305,0,0.624,0.035,0.958,0.105v1.942h-1.063c-0.1-0.316-0.29-0.475-0.571-0.475c-0.34,0-0.639,0.296-0.896,0.888
		c-0.316,0.727-0.709,1.233-1.178,1.521v0.07c0.949,0.217,1.688,0.829,2.215,1.837l0.457,0.861c0.334,0.633,0.595,1.04,0.782,1.222
		s0.393,0.281,0.615,0.299v0.589h-3.524v-0.492l-1.063-2.268c-0.246-0.521-0.477-0.864-0.689-1.028
		c-0.215-0.164-0.506-0.246-0.875-0.246h-0.193v1.494c0,0.756,0.05,1.247,0.149,1.472c0.1,0.227,0.343,0.389,0.729,0.488v0.58
		h-4.307v-0.58c0.381-0.094,0.613-0.24,0.699-0.439c0.084-0.199,0.147-0.706,0.188-1.521V37.479z"/>
	<path style="fill:#008CBA;" d="M184.381,44.237c-0.861,0-1.604-0.15-2.229-0.453c-0.623-0.301-1.111-0.784-1.463-1.449
		s-0.527-1.511-0.527-2.536c0-0.785,0.108-1.465,0.325-2.039s0.519-1.049,0.905-1.424s0.848-0.651,1.385-0.831
		c0.535-0.178,1.117-0.268,1.744-0.268c1.418,0,2.487,0.373,3.208,1.121c0.721,0.746,1.081,1.841,1.081,3.282
		c0,1.02-0.179,1.874-0.536,2.562c-0.357,0.689-0.867,1.2-1.529,1.534S185.295,44.237,184.381,44.237z M182.834,39.605
		c0,1.242,0.139,2.173,0.418,2.79c0.277,0.619,0.698,0.928,1.261,0.928c0.311,0,0.569-0.079,0.778-0.237
		c0.207-0.158,0.374-0.387,0.5-0.686s0.216-0.657,0.269-1.077c0.053-0.418,0.079-0.889,0.079-1.41c0-1.26-0.14-2.201-0.418-2.826
		c-0.278-0.623-0.689-0.936-1.234-0.936c-0.398,0-0.718,0.126-0.958,0.378s-0.416,0.63-0.527,1.134S182.834,38.814,182.834,39.605z"
		/>
	<path style="fill:#008CBA;" d="M195.491,44.097v-0.58c0.328-0.023,0.569-0.138,0.725-0.343s0.233-0.618,0.233-1.239v-5.546h-1.714
		c-0.193,1.934-0.489,3.533-0.888,4.799s-0.826,2.092-1.283,2.479s-0.996,0.58-1.617,0.58c-0.381,0-0.768-0.059-1.16-0.176v-2.021
		h1.055c0.035,0.51,0.226,0.765,0.571,0.765c0.498,0,0.946-0.753,1.345-2.259s0.598-2.637,0.598-3.393
		c0-0.457-0.079-0.763-0.237-0.919c-0.158-0.154-0.36-0.25-0.606-0.285v-0.589h7.418v0.589c-0.375,0.053-0.626,0.185-0.751,0.396
		c-0.127,0.211-0.189,0.601-0.189,1.169v4.412c0,0.621,0.07,1.025,0.211,1.213s0.384,0.311,0.729,0.369v0.58H195.491z"/>
	<path style="fill:#008CBA;" d="M205.589,44.237c-0.861,0-1.604-0.15-2.228-0.453c-0.625-0.301-1.112-0.784-1.464-1.449
		s-0.527-1.511-0.527-2.536c0-0.785,0.108-1.465,0.325-2.039s0.519-1.049,0.905-1.424s0.849-0.651,1.384-0.831
		c0.537-0.178,1.118-0.268,1.745-0.268c1.418,0,2.487,0.373,3.208,1.121c0.721,0.746,1.081,1.841,1.081,3.282
		c0,1.02-0.179,1.874-0.536,2.562c-0.357,0.689-0.867,1.2-1.529,1.534S206.503,44.237,205.589,44.237z M204.042,39.605
		c0,1.242,0.139,2.173,0.417,2.79c0.278,0.619,0.699,0.928,1.262,0.928c0.311,0,0.569-0.079,0.777-0.237s0.375-0.387,0.502-0.686
		c0.125-0.299,0.215-0.657,0.268-1.077c0.053-0.418,0.079-0.889,0.079-1.41c0-1.26-0.14-2.201-0.417-2.826
		c-0.279-0.623-0.69-0.936-1.235-0.936c-0.398,0-0.718,0.126-0.958,0.378s-0.416,0.63-0.527,1.134S204.042,38.814,204.042,39.605z"
		/>
	<path style="fill:#008CBA;" d="M214.941,36.433v5.563c0,0.51,0.059,0.882,0.176,1.116s0.343,0.369,0.677,0.404v0.58h-4.333v-0.58
		c0.363-0.053,0.61-0.182,0.743-0.387c0.131-0.205,0.197-0.583,0.197-1.134v-4.518c0-0.592-0.073-0.979-0.22-1.165
		c-0.146-0.184-0.387-0.303-0.721-0.355v-0.58h7.462v2.971h-1.107c-0.234-0.82-0.477-1.345-0.725-1.573
		c-0.25-0.229-0.67-0.343-1.262-0.343H214.941z"/>
	<path style="fill:#008CBA;" d="M229.047,41.935c0,0.615,0.066,1.014,0.197,1.195c0.133,0.182,0.362,0.311,0.69,0.387v0.58h-4.263
		v-0.58c0.334-0.064,0.557-0.209,0.668-0.436c0.111-0.225,0.167-0.607,0.167-1.146v-3.393l-3.006,3.876
		c0,0.645,0.27,1.011,0.809,1.099v0.58h-4.236v-0.58c0.375-0.088,0.612-0.244,0.712-0.471c0.1-0.225,0.149-0.713,0.149-1.463v-3.674
		c0-0.826-0.059-1.334-0.176-1.525c-0.117-0.189-0.346-0.332-0.686-0.426v-0.58h4.236v0.58c-0.363,0.088-0.593,0.244-0.69,0.471
		c-0.096,0.225-0.145,0.719-0.145,1.48v2.944l2.997-3.867c0-0.586-0.267-0.929-0.8-1.028v-0.58h4.245v0.58
		c-0.393,0.117-0.636,0.278-0.729,0.483s-0.141,0.697-0.141,1.477V41.935z"/>
	<path style="fill:#008CBA;" d="M237.248,40.423c-0.721,0.188-1.482,0.281-2.285,0.281c-1.98,0-2.971-0.855-2.971-2.566v-0.694
		c0-0.545-0.062-0.919-0.185-1.12c-0.123-0.203-0.357-0.324-0.703-0.365v-0.58h4.21v0.58c-0.322,0.053-0.533,0.195-0.633,0.426
		c-0.1,0.232-0.149,0.582-0.149,1.051v0.923c0,0.832,0.448,1.248,1.345,1.248c0.387,0,0.844-0.059,1.371-0.176v-1.986
		c0-0.51-0.046-0.87-0.136-1.081c-0.092-0.211-0.321-0.346-0.69-0.404v-0.58h4.254v0.58c-0.363,0.041-0.603,0.16-0.716,0.355
		c-0.115,0.197-0.172,0.573-0.172,1.13v4.113c0,0.756,0.049,1.247,0.145,1.472c0.098,0.227,0.342,0.389,0.734,0.488v0.58h-4.377
		v-0.58c0.34-0.082,0.584-0.226,0.734-0.431c0.148-0.205,0.224-0.712,0.224-1.521V40.423z"/>
	<path style="fill:#008CBA;" d="M250.115,42.497c-0.598,0.633-1.189,1.081-1.775,1.345s-1.26,0.396-2.021,0.396
		c-1.365,0-2.393-0.373-3.081-1.121c-0.688-0.746-1.032-1.855-1.032-3.326c0-0.949,0.177-1.768,0.532-2.457
		c0.354-0.688,0.856-1.209,1.507-1.564c0.65-0.354,1.406-0.531,2.268-0.531c0.533,0,1,0.062,1.401,0.185s0.746,0.294,1.033,0.515
		c0.287,0.219,0.524,0.484,0.712,0.795c0.223,0.369,0.39,0.791,0.501,1.266c0.117,0.486,0.179,1.075,0.185,1.767h-5.572
		c0.006,1.061,0.194,1.841,0.567,2.343c0.371,0.5,0.938,0.751,1.7,0.751c0.445,0,0.847-0.083,1.204-0.251
		c0.357-0.166,0.744-0.461,1.16-0.883L250.115,42.497z M247.742,38.814c-0.023-0.896-0.141-1.564-0.352-2.004
		s-0.551-0.659-1.02-0.659c-0.451,0-0.811,0.229-1.077,0.686s-0.426,1.116-0.479,1.978H247.742z"/>
	<path style="fill:#008CBA;" d="M258.412,41.847l0.677,0.817c-0.574,0.563-1.129,0.966-1.666,1.208
		c-0.535,0.243-1.12,0.365-1.753,0.365c-1.271,0-2.241-0.373-2.909-1.121c-0.668-0.746-1.002-1.832-1.002-3.256
		c0-0.961,0.183-1.791,0.549-2.492c0.366-0.699,0.893-1.23,1.578-1.59c0.686-0.361,1.471-0.541,2.355-0.541
		c0.475,0,0.947,0.034,1.42,0.102c0.471,0.066,0.9,0.159,1.287,0.276v2.118h-1.74c-0.088-0.551-0.22-0.952-0.396-1.204
		s-0.428-0.378-0.756-0.378c-0.217,0-0.424,0.055-0.62,0.162c-0.196,0.109-0.369,0.297-0.518,0.563
		c-0.15,0.268-0.269,0.625-0.356,1.072c-0.088,0.449-0.132,1.016-0.132,1.701s0.064,1.264,0.193,1.736
		c0.129,0.472,0.337,0.834,0.624,1.09c0.287,0.254,0.665,0.382,1.134,0.382c0.34,0,0.66-0.073,0.963-0.22
		C257.645,42.491,258.001,42.228,258.412,41.847z"/>
	<path style="fill:#008CBA;" d="M260.978,37.479c0-0.539-0.064-0.911-0.193-1.116s-0.378-0.34-0.747-0.404v-0.58h4.324v0.58
		c-0.311,0.053-0.529,0.18-0.654,0.383c-0.127,0.201-0.189,0.581-0.189,1.138v1.705h0.167c0.504,0,0.917-0.124,1.239-0.374
		c0.322-0.248,0.618-0.698,0.888-1.349c0.422-1.014,0.826-1.638,1.213-1.872s0.894-0.352,1.521-0.352
		c0.305,0,0.624,0.035,0.958,0.105v1.942h-1.063c-0.1-0.316-0.29-0.475-0.571-0.475c-0.34,0-0.639,0.296-0.896,0.888
		c-0.316,0.727-0.709,1.233-1.178,1.521v0.07c0.949,0.217,1.688,0.829,2.215,1.837l0.457,0.861c0.334,0.633,0.595,1.04,0.782,1.222
		s0.393,0.281,0.615,0.299v0.589h-3.524v-0.492l-1.063-2.268c-0.246-0.521-0.477-0.864-0.689-1.028
		c-0.215-0.164-0.506-0.246-0.875-0.246h-0.193v1.494c0,0.756,0.05,1.247,0.149,1.472c0.1,0.227,0.343,0.389,0.729,0.488v0.58
		h-4.307v-0.58c0.381-0.094,0.613-0.24,0.699-0.439c0.084-0.199,0.147-0.706,0.188-1.521V37.479z"/>
	<path style="fill:#008CBA;" d="M274.627,44.237c-0.861,0-1.604-0.15-2.229-0.453c-0.623-0.301-1.111-0.784-1.463-1.449
		s-0.527-1.511-0.527-2.536c0-0.785,0.108-1.465,0.325-2.039s0.519-1.049,0.905-1.424s0.848-0.651,1.385-0.831
		c0.535-0.178,1.117-0.268,1.744-0.268c1.418,0,2.487,0.373,3.208,1.121c0.721,0.746,1.081,1.841,1.081,3.282
		c0,1.02-0.179,1.874-0.536,2.562c-0.357,0.689-0.867,1.2-1.529,1.534S275.542,44.237,274.627,44.237z M273.081,39.605
		c0,1.242,0.139,2.173,0.418,2.79c0.277,0.619,0.698,0.928,1.261,0.928c0.311,0,0.569-0.079,0.778-0.237
		c0.207-0.158,0.374-0.387,0.5-0.686s0.216-0.657,0.269-1.077c0.053-0.418,0.079-0.889,0.079-1.41c0-1.26-0.14-2.201-0.418-2.826
		c-0.278-0.623-0.689-0.936-1.234-0.936c-0.398,0-0.718,0.126-0.958,0.378s-0.416,0.63-0.527,1.134S273.081,38.814,273.081,39.605z"
		/>
	<path style="fill:#008CBA;" d="M288.567,42.497c-0.598,0.633-1.189,1.081-1.775,1.345s-1.26,0.396-2.021,0.396
		c-1.365,0-2.393-0.373-3.08-1.121c-0.689-0.746-1.033-1.855-1.033-3.326c0-0.949,0.177-1.768,0.531-2.457
		c0.354-0.688,0.857-1.209,1.508-1.564c0.65-0.354,1.406-0.531,2.268-0.531c0.533,0,1,0.062,1.402,0.185
		c0.4,0.123,0.745,0.294,1.032,0.515c0.287,0.219,0.524,0.484,0.712,0.795c0.223,0.369,0.39,0.791,0.501,1.266
		c0.117,0.486,0.179,1.075,0.185,1.767h-5.572c0.006,1.061,0.194,1.841,0.566,2.343c0.372,0.5,0.939,0.751,1.701,0.751
		c0.445,0,0.847-0.083,1.204-0.251c0.357-0.166,0.744-0.461,1.16-0.883L288.567,42.497z M286.194,38.814
		c-0.023-0.896-0.141-1.564-0.352-2.004s-0.551-0.659-1.02-0.659c-0.451,0-0.811,0.229-1.076,0.686
		c-0.268,0.457-0.427,1.116-0.479,1.978H286.194z"/>
	<path style="fill:#008CBA;" d="M298.393,44.237c-0.861,0-1.604-0.15-2.229-0.453c-0.623-0.301-1.111-0.784-1.463-1.449
		s-0.527-1.511-0.527-2.536c0-0.785,0.108-1.465,0.325-2.039s0.519-1.049,0.905-1.424s0.848-0.651,1.385-0.831
		c0.535-0.178,1.117-0.268,1.744-0.268c1.418,0,2.487,0.373,3.208,1.121c0.721,0.746,1.081,1.841,1.081,3.282
		c0,1.02-0.179,1.874-0.536,2.562c-0.357,0.689-0.867,1.2-1.529,1.534S299.307,44.237,298.393,44.237z M296.846,39.605
		c0,1.242,0.139,2.173,0.418,2.79c0.277,0.619,0.698,0.928,1.261,0.928c0.311,0,0.569-0.079,0.778-0.237
		c0.207-0.158,0.374-0.387,0.5-0.686s0.216-0.657,0.269-1.077c0.053-0.418,0.079-0.889,0.079-1.41c0-1.26-0.14-2.201-0.418-2.826
		c-0.278-0.623-0.689-0.936-1.234-0.936c-0.398,0-0.718,0.126-0.958,0.378s-0.416,0.63-0.527,1.134S296.846,38.814,296.846,39.605z"
		/>
	<path style="fill:#008CBA;" d="M303.754,35.378h8.851v2.795h-1.09c-0.029-0.627-0.136-1.074-0.321-1.34
		c-0.184-0.268-0.511-0.4-0.979-0.4h-0.765v5.273c0,0.721,0.053,1.189,0.158,1.406s0.357,0.352,0.756,0.404v0.58h-4.386v-0.58
		c0.404-0.064,0.66-0.205,0.769-0.422s0.163-0.68,0.163-1.389v-5.273h-0.773c-0.463,0-0.788,0.135-0.976,0.404
		s-0.296,0.715-0.325,1.336h-1.081V35.378z"/>
	<path style="fill:#008CBA;" d="M314.908,44.097c-0.311,0-0.56,0.068-0.747,0.207c-0.188,0.137-0.383,0.446-0.584,0.927
		c-0.203,0.48-0.368,1.049-0.497,1.705h-1.055v-3.938h1.125c0.574-0.896,1.061-1.951,1.459-3.164s0.598-2.188,0.598-2.927
		c0-0.334-0.059-0.57-0.176-0.707c-0.117-0.139-0.34-0.219-0.668-0.242v-0.58h7.075v0.58c-0.633,0.059-0.949,0.489-0.949,1.292
		v5.748h1.415v3.938h-1.063c-0.146-0.744-0.315-1.344-0.506-1.798s-0.37-0.741-0.54-0.861s-0.451-0.18-0.844-0.18H314.908z
		 M317.949,42.998v-6.609h-1.494c-0.229,2.396-0.864,4.6-1.907,6.609H317.949z"/>
	<path style="fill:#008CBA;" d="M331.097,42.497c-0.598,0.633-1.189,1.081-1.775,1.345s-1.26,0.396-2.021,0.396
		c-1.365,0-2.393-0.373-3.081-1.121c-0.688-0.746-1.032-1.855-1.032-3.326c0-0.949,0.177-1.768,0.532-2.457
		c0.354-0.688,0.856-1.209,1.507-1.564c0.65-0.354,1.406-0.531,2.268-0.531c0.533,0,1,0.062,1.401,0.185s0.746,0.294,1.033,0.515
		c0.287,0.219,0.524,0.484,0.712,0.795c0.223,0.369,0.39,0.791,0.501,1.266c0.117,0.486,0.179,1.075,0.185,1.767h-5.572
		c0.006,1.061,0.194,1.841,0.567,2.343c0.371,0.5,0.938,0.751,1.7,0.751c0.445,0,0.847-0.083,1.204-0.251
		c0.357-0.166,0.744-0.461,1.16-0.883L331.097,42.497z M328.724,38.814c-0.023-0.896-0.141-1.564-0.352-2.004
		s-0.551-0.659-1.02-0.659c-0.451,0-0.811,0.229-1.077,0.686s-0.426,1.116-0.479,1.978H328.724z"/>
	<path style="fill:#008CBA;" d="M337.821,44.097v-0.58c0.328-0.023,0.569-0.138,0.725-0.343s0.233-0.618,0.233-1.239v-5.546h-1.714
		c-0.193,1.934-0.489,3.533-0.888,4.799s-0.826,2.092-1.283,2.479s-0.996,0.58-1.617,0.58c-0.381,0-0.768-0.059-1.16-0.176v-2.021
		h1.055c0.035,0.51,0.226,0.765,0.571,0.765c0.498,0,0.946-0.753,1.345-2.259s0.598-2.637,0.598-3.393
		c0-0.457-0.079-0.763-0.237-0.919c-0.158-0.154-0.36-0.25-0.606-0.285v-0.589h7.418v0.589c-0.375,0.053-0.626,0.185-0.751,0.396
		c-0.127,0.211-0.189,0.601-0.189,1.169v4.412c0,0.621,0.07,1.025,0.211,1.213s0.384,0.311,0.729,0.369v0.58H337.821z"/>
	<path style="fill:#008CBA;" d="M351.611,42.497c-0.598,0.633-1.189,1.081-1.775,1.345s-1.26,0.396-2.021,0.396
		c-1.365,0-2.393-0.373-3.081-1.121c-0.688-0.746-1.032-1.855-1.032-3.326c0-0.949,0.177-1.768,0.532-2.457
		c0.354-0.688,0.856-1.209,1.507-1.564c0.65-0.354,1.406-0.531,2.268-0.531c0.533,0,1,0.062,1.401,0.185s0.746,0.294,1.033,0.515
		c0.287,0.219,0.524,0.484,0.712,0.795c0.223,0.369,0.39,0.791,0.501,1.266c0.117,0.486,0.179,1.075,0.185,1.767h-5.572
		c0.006,1.061,0.194,1.841,0.567,2.343c0.371,0.5,0.938,0.751,1.7,0.751c0.445,0,0.847-0.083,1.204-0.251
		c0.357-0.166,0.744-0.461,1.16-0.883L351.611,42.497z M349.238,38.814c-0.023-0.896-0.141-1.564-0.352-2.004
		s-0.551-0.659-1.02-0.659c-0.451,0-0.811,0.229-1.077,0.686s-0.426,1.116-0.479,1.978H349.238z"/>
	<path style="fill:#008CBA;" d="M362.008,41.996c0,0.545,0.066,0.922,0.197,1.13c0.133,0.208,0.383,0.338,0.752,0.391v0.58h-4.333
		v-0.58c0.352-0.053,0.58-0.189,0.686-0.408c0.105-0.221,0.158-0.591,0.158-1.112v-1.819h-2.892v1.819
		c0,0.592,0.062,0.981,0.185,1.169s0.346,0.305,0.668,0.352v0.58h-4.333v-0.58c0.363-0.053,0.611-0.182,0.742-0.387
		c0.133-0.205,0.198-0.583,0.198-1.134v-4.518c0-0.633-0.075-1.031-0.224-1.195c-0.15-0.164-0.389-0.272-0.717-0.325v-0.58h4.324
		v0.58c-0.34,0.047-0.565,0.17-0.677,0.369s-0.167,0.583-0.167,1.151v1.564h2.892v-1.564c0-0.639-0.065-1.043-0.198-1.213
		c-0.131-0.17-0.35-0.272-0.654-0.308v-0.58h4.342v0.58c-0.369,0.053-0.619,0.186-0.752,0.4c-0.131,0.213-0.197,0.587-0.197,1.12
		V41.996z"/>
	<path style="fill:#008CBA;" d="M373.329,41.935c0,0.615,0.066,1.014,0.197,1.195c0.133,0.182,0.362,0.311,0.69,0.387v0.58h-4.263
		v-0.58c0.334-0.064,0.557-0.209,0.668-0.436c0.111-0.225,0.167-0.607,0.167-1.146v-3.393l-3.006,3.876
		c0,0.645,0.27,1.011,0.809,1.099v0.58h-4.236v-0.58c0.375-0.088,0.612-0.244,0.712-0.471c0.1-0.225,0.149-0.713,0.149-1.463v-3.674
		c0-0.826-0.059-1.334-0.176-1.525c-0.117-0.189-0.346-0.332-0.686-0.426v-0.58h4.236v0.58c-0.363,0.088-0.593,0.244-0.69,0.471
		c-0.096,0.225-0.145,0.719-0.145,1.48v2.944l2.997-3.867c0-0.586-0.267-0.929-0.8-1.028v-0.58h4.245v0.58
		c-0.393,0.117-0.636,0.278-0.729,0.483s-0.141,0.697-0.141,1.477V41.935z"/>
	<path style="fill:#008CBA;" d="M383.656,42.497c-0.598,0.633-1.189,1.081-1.775,1.345s-1.26,0.396-2.021,0.396
		c-1.365,0-2.393-0.373-3.081-1.121c-0.688-0.746-1.032-1.855-1.032-3.326c0-0.949,0.177-1.768,0.532-2.457
		c0.354-0.688,0.856-1.209,1.507-1.564c0.65-0.354,1.406-0.531,2.268-0.531c0.533,0,1,0.062,1.401,0.185s0.746,0.294,1.033,0.515
		c0.287,0.219,0.524,0.484,0.712,0.795c0.223,0.369,0.39,0.791,0.501,1.266c0.117,0.486,0.179,1.075,0.185,1.767h-5.572
		c0.006,1.061,0.194,1.841,0.567,2.343c0.371,0.5,0.938,0.751,1.7,0.751c0.445,0,0.847-0.083,1.204-0.251
		c0.357-0.166,0.744-0.461,1.16-0.883L383.656,42.497z M381.283,38.814c-0.023-0.896-0.141-1.564-0.352-2.004
		s-0.551-0.659-1.02-0.659c-0.451,0-0.811,0.229-1.077,0.686s-0.426,1.116-0.479,1.978H381.283z"/>
</g>
<line style="fill:none;stroke:#DDDDDD;stroke-width:4;stroke-miterlimit:10;" x1="102.042" y1="58.122" x2="350.042" y2="58.122"/>
</svg>
