<?xml version="1.0" encoding="iso-8859-1"?>
<!-- Generator: Adobe Illustrator 15.0.2, SVG Export Plug-In . SVG Version: 6.00 Build 0)  -->
<!DOCTYPE svg PUBLIC "-//W3C//DTD SVG 1.1//EN" "http://www.w3.org/Graphics/SVG/1.1/DTD/svg11.dtd">
<svg version="1.1" id="Layer_1" xmlns="http://www.w3.org/2000/svg" xmlns:xlink="http://www.w3.org/1999/xlink" x="0px" y="0px"
	 width="100px" height="100px" viewBox="-8.958 -5.708 100 100" style="enable-background:new -8.958 -5.708 100 100;"
	 xml:space="preserve">
<g id="Layer_2">
	<g id="XMLID_2_">
		<path style="fill:#082737;" d="M20.409,24.331c1.393,0.906,8.729-0.561,9.269-0.445C27.894,23.082,21.448,24.726,20.409,24.331z
			 M85.4,39.287c0.315,18.082,1.71,32.364,0.444,54.891c-5.015,0.854-10.55,0.393-16.048,0.393c-18.35,0-38.968-0.393-59.289-0.393
			c-4.551,0-9.676,0.869-13.819-1.188c0.913-26.587-1.225-65.055-0.891-94.77c0.056-4.541-0.651-2.512,1.338-3.927
			c26.598,0,53.194,0,79.794,0c0.631,0.657,4.29,0.657,4.903,0c0.445,0,0.892,0,1.335,0c2.475,1.185,1.676,3.522,1.783,5.528
			C85.696,13.313,85.138,24.297,85.4,39.287z M83.167,72.063c0.228-10.596,0.243-20.944-0.443-33.564
			c-5.015-0.215-8.212-0.18-12.928,0.395c-0.223,11.845-0.242,26.078,0.444,36.725c0.021,0.656,1.247,0.214,1.342,0.792
			c-2.883,2.103-1.043,4.917-1.342,8.687c1.356-0.247,3.846,0.507,4.46-0.399c-0.315-1.165-3.14-0.098-3.118-1.579
			c1.26-0.59,3.527-0.295,2.673-2.764c-0.169-0.489-3.25,0.595-3.567-0.786c0.766-1.301,3.994,0.773,3.567-0.791
			c0.964-2.271-2.673-1.776-1.34-3.157c3.419,0.608,6.744-1.054,9.809,0.79c-1.079,0.608-3.14,0.376-3.121,1.972
			c0.817,0.873,1.839,1.301,3.121,0.792c0.892-1.185,0.261-3.72,0.443-5.532c-1.485-0.606-3.954-0.325-6.238-0.392
			c-2.417-0.065-5.347,0.711-6.242-0.79C74.83,71.471,78.99,72.509,83.167,72.063z M83.167,82.723
			c0.021-1.463-0.2-2.714-1.778-2.763c-0.076,0.462-0.707,0.429-1.342,0.395c-0.184,1.694-1.484,3.997-0.444,5.527
			c1.3-0.427,3.026-0.491,3.121-1.974c-0.838-0.182-2.677,0.542-2.23-0.79C81.593,83.17,82.65,83.185,83.167,82.723z M82.724,37.313
			c0-5.79,0-11.582,0-17.375c-4.811-0.181-8.415,0.708-13.373,0.396c-0.968,1.907-0.968,4.671-0.892,7.5
			c2.116-0.148,3.715,0.132,5.352,0.395c1.095-1.004-0.206-4.128,0.89-5.133c1.041,0,2.083,0,3.12,0
			c0.595,1.185,0.464,3.027,0.445,4.738c1.729,0.05,4.105-0.477,3.566,1.581c-4.903-0.1-7.82-0.412-12.928,0.394
			c0.242,2.305,0.669,4.427,0.446,7.108c1.635,0.492,3.214,0.18,4.904,0c0.89-1.646-0.561-2.929,0.445-4.345
			c1.521-0.394,1.692-0.263,3.563,0c0.649,1.76,0,2.321,0,4.345C79.119,37.625,81.219,37.213,82.724,37.313z M82.724,15.989
			c-1.266-7.965,0.391-10.985-0.892-18.932c-27.714,0.246-54.385-0.905-83.359,0c0.742,9.197-0.204,12.021,0.89,22.881
			c5.535-0.475,13.634-0.395,16.94-1.581c-0.649-1.431,1.04-1.711,1.339-2.762c0.576-1.958-0.596-3.059-0.892-5.132
			c-0.317-2.29-0.131-4.626,0-6.716c2.917-0.163,8.653,0.116,12.927,0c1.597,0.248,2.432,1.613,4.457,1.976
			c4.049,0.742,10.157-0.543,14.712,0c1.762-0.757,0.295-2.846,1.781-3.159c6.128,0.113,9.49-0.181,14.71-0.396
			c3.14,3.934,5.442,7.914,4.902,14.215C74.574,16.333,78.713,17.354,82.724,15.989z M79.159,91.411c0-0.265,0-0.524,0-0.788
			c-0.298,0-0.596,0-0.893,0c0,0.264,0,0.523,0,0.788C78.563,91.411,78.861,91.411,79.159,91.411z M71.134,89.041
			c0.705-0.032,1.54,0.052,1.336-0.789c-0.296,0-0.595,0-0.888,0C71.583,88.648,71.225,88.73,71.134,89.041z M70.241,90.623
			c-0.333,1.35,1.71,1.545,1.786,0.396C71.43,90.887,71.172,90.458,70.241,90.623z M64.893,68.904c0-1.187,0-2.369,0-3.555
			c-1.783,0-3.565,0-5.353,0c-0.333,1.479,0.561,1.89,0.449,3.157C61.23,68.983,63.074,68.939,64.893,68.904z M64.449,75.617
			c0.24-3.276-5.442-1.053-6.69-1.188C58.744,76.77,61.717,75.321,64.449,75.617z M64.002,82.33
			c0.423-2.173-0.597-2.683,0.446-5.134c-2.488-0.643-2.452,0.983-4.014,1.184c-0.895-2.846-3.139-0.674-6.688-1.184
			c1.043,1.613-0.776,3.308,0.447,4.738c0.018-0.361,3.174-0.198,2.672,1.184c-0.982,0.922-1.724-0.128-3.119,0
			c0,0.922,0,1.844,0,2.768c0.743,0,1.484,0,2.229,0c0.631-0.515,0.207-1.944,1.338-1.977c1.354,0.593,1.745-0.132,2.672,0.394
			c-0.48,2.748,3.05,1.941,1.341,4.738c0.536,0.461,1.575,0.444,2.677,0.399c0.536-1.929-0.709-2.259-1.787-2.768
			c0.613-0.132,0.854-0.561,1.787-0.394c0-0.791,0-1.582,0-2.37c-1.248-0.854-4.647,0.167-5.797-0.791
			c0.612-2.384-0.69-3.059-2.23-3.553c1.038-0.542,4.79-0.74,5.795,0c-0.707,0.808-2.915,0.313-2.229,2.369
			C61.27,81.853,62.833,81.919,64.002,82.33z M61.328,63.769c1.501,0.019,3.323,0.99,3.565-0.395
			c-3.939-0.868-7.467,0.313-11.59-0.395C54.716,64.445,58.762,63.736,61.328,63.769z M63.557,72.852
			c0.519-0.461,0.499-1.396,0.446-2.369c-0.597,0-1.19,0-1.783,0c0.372,1.122-0.634,1.021-0.446,1.975
			C62.626,72.377,62.759,72.902,63.557,72.852z M59.99,92.203c1.487-0.526,4.459,0.263,4.013-1.977c-1.191,0-2.38,0-3.567,0
			c0.354-1.364-0.667-1.512-0.445-2.761c-2.231-0.332-3.865-1.219-6.243-0.398c0,0.662,0,1.318,0,1.979
			c1.376-0.284,1.636,0.409,2.676,0.395c-0.332-1.369,0.261-1.893,1.784-1.581C58.019,90.015,59.34,90.804,59.99,92.203z
			 M63.557,49.159c-2.304,0.049,0.073-1.513,0-1.976c-0.13-0.936-1.577-1.448-1.337-2.762c1.391-3.475,0.539-9.197-0.446-13.427
			c-0.444,0-0.89,0-1.337,0c-0.038,0.625-1.133,0.312-0.894,1.185c0.056,9.709-0.073,21.193,0,29.615
			c1.394-0.083,3.27,0.265,4.014-0.395c-0.15-1.445-1.764-1.598-1.337-3.553C64.56,54.771,62.032,51.875,63.557,49.159z
			 M64.449,19.938C61.94,19,51.816,21.519,51.519,18.754c-0.128,0.524-0.629,0.756-0.445,1.58
			C53.952,21.32,60.509,21.158,64.449,19.938z M62.666,8.881c0.61-1.184,0.61-3.158,0-4.343c-3.715,0-7.433,0-11.146,0
			c0.426,1.695,0.224,3.373,0.449,4.343C56.649,8.583,59.671,9.621,62.666,8.881z M64.449,17.963
			c-3.158-0.296-6.446-0.331-8.918,0.791C58.726,18.688,62.422,19.065,64.449,17.963z M63.11,25.467
			c-0.334-0.889-2.487-0.148-3.569-0.394c0,0.526,0,1.051,0,1.58C60.937,26.419,62.943,26.765,63.11,25.467z M62.22,29.021
			c-1.076-0.395-0.947-0.132-2.677-0.395C59.229,30.319,61.867,29.906,62.22,29.021z M64.002,22.701
			c-2.529-0.92-6.983-0.131-10.256-0.394c-0.334,0.083-0.521,0.33-0.444,0.79C55.922,24.264,62.574,24.396,64.002,22.701z
			 M59.99,16.78c1.301-0.494,1.762-6.021-0.449-5.925C58.133,11.448,57.966,16.715,59.99,16.78z M59.99,72.852
			c0.464-0.526,0.445-1.449,0.89-1.975c-1.632-0.789-4.92-0.115-6.686-0.789c0,0.658,0,1.318,0,1.976
			C56.683,71.831,58.133,72.523,59.99,72.852z M57.317,51.923c0.333-1.217-1.227-0.757-0.895-1.971
			c2.154-2.585-0.892-8.146,0.895-11.453c-1.192-2.058,0.036-3.407-0.451-7.108c-0.741,0-1.482,0-2.225,0
			c-2.005,9.74,0.907,20.532-1.338,30.405c1.187,0,2.378,0,3.563,0C56.09,58.57,55.883,55.903,57.317,51.923z M54.194,68.904
			c2.712,0.426,3.307-1.021,3.123-3.159c-0.598-0.66-2.527-0.134-3.123-0.79C53.319,66.369,54.402,67.06,54.194,68.904z
			 M53.303,25.071c-0.687,2.535,4.235,2.649,4.014,0.394C56.574,24.809,54.696,25.152,53.303,25.071z M57.317,92.203
			c-0.317-1.086,0.89-0.789,0.89-1.58c-1.822-0.412-2.101,0.113-4.46,0C54.026,93.306,55.903,91.198,57.317,92.203z M56.422,75.617
			c0.374-1.762-0.779-2.191-2.229-2.371c0,0.79,0,1.579,0,2.371C54.936,75.617,55.681,75.617,56.422,75.617z M55.087,11.251
			c-0.446,0-0.894,0-1.341,0c0.504,1.662-1.04,5.131,0.892,5.529C56.779,15.809,54.49,13.341,55.087,11.251z M51.964,74.036
			c1.076-3.274-2.23-2.369-5.349-2.369c-4.127,0-8.397-0.442-10.255,0.396c-2.081-0.214-4.144-0.921-4.011,1.578
			c0.724,0.938,3.938-0.309,4.011,1.187c0.984,0.921-0.092,2.236-0.444,3.161c3.044,0.541,8.876-0.231,11.589,0
			c0.244-1.531-0.798-1.927-0.445-3.555C48.028,73.694,50.33,74.17,51.964,74.036z M51.519,69.695
			c0.97-12.704,0.688-26.375,1.339-40.672c-0.65-0.347-1.411-0.592-1.339-1.582c-5.125-1.433-13.947,0.823-17.83-0.789
			c0.392-0.692,1.412-1.152,0.446-1.973c0.853-0.084,4.401,0.262,3.119-0.396c-1.784,0-3.565,0-5.349,0
			c-0.112,2.272,0.335,5.035-0.443,6.713c1.986-0.311,2.971,0.264,4.01,0.789c0.317,2.124-1.838,5.037,1.785,4.739
			c1.021-2.137-0.537-6.548,3.566-5.925c2.729,0.478-0.261,6.023,2.676,6.321c2.151-0.856-0.334-5.825,1.784-6.713
			c5.497-1.431,3.881,5.511,4.011,7.503c-4.531-0.021-12.02,0.395-17.831-0.396c0.611,8.11,0.11,17.951,0.444,26.456
			c0.093,2.338,0.111,4.805,1.338,6.714c0.501-8.688-0.649-13.194,0.893-19.744c3.993-3.902,14.782-2.977,16.491,2.369
			c1.001,3.144-0.113,9.824,0,13.034C50.663,67.242,49.848,69.183,51.519,69.695z M51.519,91.809
			c0.241-2.716,1.375-10.597-0.445-13.819c-0.075,0.457-0.706,0.428-1.34,0.391C49.458,82.657,47.915,91.627,51.519,91.809z
			 M51.074,17.569c0.611-0.51,0.445-1.712,0.445-2.762c-6.631,0.788-15.546-0.48-19.613,1.577c1.857-0.049,3.456,0.117,4.457,0.791
			c-0.316,1.611-1.264,5.035,0.892,5.528c1.152-1.235-0.24-4.688,0.894-5.923c1.338,0,2.672,0,4.009,0
			c0.374,1.991,0.707,4.014,0,5.923c2.545-0.115,0.707-4.113,1.787-5.528C46.507,15.595,48.304,17.24,51.074,17.569z M51.519,12.435
			c-0.405-1.743-1.503-2.879-1.78-4.737c-5.722,0.443-12.334,0.131-17.833,0.79c0.185,1.677-0.429,4.064,0.445,5.134
			C38.089,12.649,46.616,14.146,51.519,12.435z M49.739,25.071c-1.282-0.083-2.267,0.1-2.675,0.788
			C48.25,25.861,49.7,26.074,49.739,25.071z M48.398,69.695c-0.263-5.694-0.483-11.7-0.446-16.588
			c-2.19-2.022-8.078-4.771-11.589-2.369c-1.449,1.007-0.634,3.077-2.228,4.343c0.873,3.224,0.929,7.079,0.891,10.664
			c0,1.284-0.908,3.521,0.446,4.343c2.286-3.438,0.037-9.594,0.894-13.426c1.301-5.709,9.083-5.263,10.698-0.789
			C48.38,59.476,45.334,67.324,48.398,69.695z M45.723,69.695c0.26-1.283-0.298-1.844-0.443-2.766c-2.231,0-4.46,0-6.687,0
			c0.203,1.352-0.169,2.222-0.445,3.158C40.596,69.891,43.997,70.516,45.723,69.695z M40.82,25.467
			C37.981,25.004,39.856,26.667,40.82,25.467L40.82,25.467z M35.47,86.673c0.168-2.388-0.111-4.951,0-6.713
			c-1.06-0.643-1.966-1.413-3.119-1.975c-0.371,2.798,0.335,5.562,0.446,7.9c0.093,1.844-0.983,4.229,0.892,5.528
			C36.437,91.692,35.362,88.485,35.47,86.673z M26.11,86.673c0.912-0.772,3.807,0.215,3.12-1.976
			c-2.173-1.184-4.569-0.606-6.242-0.395c1.821,2.37-1.56,4.873,0,7.108c2.265,0.347,3.326-0.135,6.242,0
			c0.149-1.431-0.077-2.566-0.443-3.554C27.207,88.071,26.5,87.532,26.11,86.673z M28.787,68.509
			c0.277-0.937,0.646-1.81,0.443-3.159c-1.43-0.758-2.637-0.823-4.458-0.395c-0.854,0.938,0.39,3.767-1.785,3.555
			c-1.336-1.054-0.333-2.386-0.891-3.555c-1.43-0.642-2.416-0.18-4.012,0c-0.113,1.679,0.409,2.799,0.891,3.95
			C23.102,68.952,25.253,69.283,28.787,68.509z M28.787,82.723c0.871-1.067,0.277-3.455,0.443-5.131
			c-2.153-0.396-5.221-0.182-7.131,0c0,0.394,0,0.788,0,1.186c0.855,1.219,4.104,0.313,5.349,1.184
			c0.446,2.174-4.996,1.253-5.349,0.394c-1.208,0.775-3.884,0.232-4.013,1.978C20.612,82.889,24.941,81.982,28.787,82.723z
			 M29.23,72.457c-0.669-1.199,0.149-1.528-0.443-2.369c-2.918-0.017-7.449-0.345-10.7,0.395c0,0.526,0,1.052,0,1.581
			c1.022,0.938,4.326-0.148,5.348,0.788c0.244-0.577-0.519-2.04,0.449-1.975c1.672,0.264-0.335,1.318,1.335,1.58
			C25.98,71.42,27.523,73.015,29.23,72.457z M28.787,61.4c0.443-12.339,0.352-19.843-0.893-29.616c-1.411-0.542-1.484-0.083-3.119,0
			c-0.02,9.741-0.742,19.516,0.444,29.616C26.836,61.534,27.374,62.011,28.787,61.4z M28.787,76.011c0-0.79,0-1.581,0-2.372
			c-3.717,0.529-4.925,0.413-10.255,0.397c0,1.844,0,3.687,0,5.528c0.891,0,1.782,0,2.673,0c-0.167-1.169-1.095-2.864-0.444-3.554
			C23.434,76.011,26.11,76.011,28.787,76.011z M28.787,29.811c-2.825,0.246-6.297-1.399-7.582,0.787
			C23.77,29.876,27.077,31.669,28.787,29.811z M28.337,10.463c-0.165-1.681,0.429-4.066-0.445-5.135
			c-3.418,0.017-6.705,0.346-8.916,0.396c-1.021,0.676-0.167,3.01-0.445,4.344C21.374,10.575,24.904,10.477,28.337,10.463z
			 M24.775,26.65c0.78,1.07,4.643,1.236,4.903-0.396C28.934,25.632,24.904,25.435,24.775,26.65z M30.121,20.726
			c-2.673-0.919-7.28-0.132-10.698-0.392c-0.334,0.082-0.52,0.327-0.446,0.789c-0.539,0.083-0.278,0.444,0,0.79
			C22.656,21.09,27.968,23.345,30.121,20.726z M26.11,16.78c0.856-0.954,0.279-3.178,0.446-4.738c-0.446,0-0.891,0-1.337,0
			C24.608,13.586,23.603,16.416,26.11,16.78z M27.894,62.979c-1.895-0.376-6.574-0.112-8.916,0.395
			C21.468,63.901,26.518,63.722,27.894,62.979z M23.434,25.861c-1.281,0.051-2.915-0.215-3.565,0.394
			c-0.037,1.352,1.318,1.465,2.23,1.977C22.525,27.426,23.008,26.667,23.434,25.861z M22.099,58.637
			c0.539-8.837-0.39-18.147,0-26.457c-0.094-0.315-0.375-0.461-0.892-0.396c-0.02,0.509-0.574,0.544-0.444,1.188
			c-0.244,6.86,0.334,15.053,0,21.718c-0.112,2.367-1.562,5,0.444,6.711C22.86,61.237,22.061,59.311,22.099,58.637z M21.208,83.118
			c-0.91,0.445-1.783,3.77,0.447,3.557C21.077,84.996,23.008,83.547,21.208,83.118z M20.761,16.382
			c1.226-0.441,1.168-3.405,0.444-4.342c-0.593,0-1.186,0-1.782,0C19.554,13.769,19.127,15.989,20.761,16.382z M19.423,91.02
			c-0.037-0.629,0.055-1.37-0.891-1.188c0,0.262,0,0.525,0,0.789C18.979,90.623,19.071,90.935,19.423,91.02z M18.086,60.611
			c2.285-8.772-0.519-22.017,0.446-29.617c-3.175-0.655-4.253-0.146-7.577,0c-1.247-0.741-1.191-4.262-0.449-5.528
			c1.69-0.263,1.69-0.443,3.566,0c-0.056,2.452,0.611,2.255,0,3.949c1.337,0,2.675,0,4.012,0c0.073-2.173,0.055-4.261-0.444-5.924
			c-5.091-1.743-14.005-0.231-18.723-0.394c0,2.239,0,4.475,0,6.713c1.355-0.017,2.936-0.232,2.674,1.185
			c-1.374,0.281-0.855,0.281-2.229,0c-0.408,3.635,0.019,4.87-0.444,7.503c1.357,0.114,1.598,1.217,3.566,0.788
			c0-1.578,0-3.158,0-4.736c2.212,0.047,2.192-0.396,4.013,0c0.297,2.497,0.131,5.428,4.011,4.736
			c0.428-2.731-0.797-4.524,1.338-5.528c1.746-0.229,2.601,0.346,3.565,0.792c-0.518,2.961,0.912,4.212,2.677,5.132
			c-5.888,0.889-12.259,0.789-18.276,0.396c-1.728,8.125-0.446,16.255-0.446,24.876c0,2.318-0.985,5.709,1.338,7.106
			c0.593,0,1.189,0,1.782,0c0.557-4.328-0.037-11.466,3.121-14.61c-1.542-2.321-4.216-3.636-3.565-7.899
			c0.746-1.595,3.197-1.661,4.012-3.157c-1.002-0.3-0.164-2.223-0.446-3.157c1.077-0.498,2.174-0.974,3.564-1.188
			c1.988,0.722,2.304,3.271,2.23,4.739c0.557,1.873,2.897,2.171,3.119,4.343c-0.612,3.127-3.51,4.245-4.455,7.107
			c5.015,3.256-0.448,16.094,5.793,17.771c1.038-4.247-0.726-9.414,0.892-13.429C17.104,61.712,17.862,61.468,18.086,60.611z
			 M15.411,79.565c1.282-0.049,0.818-1.646,0.892-2.766c-1.095-0.045-2.137-0.064-2.676,0.396
			C14.075,78.136,13.777,79.697,15.411,79.565z M16.304,81.935c0.278-1.792-0.985-1.629-2.229-1.187
			C13.871,81.982,15.021,82.017,16.304,81.935z M16.304,85.886c0.056-0.973,0.077-1.91-0.444-2.371c-0.447,0-0.893,0-1.338,0
			C14.355,84.996,14.873,85.833,16.304,85.886z M7.389,74.036c1.429-0.804,1.393,1.564,1.783,0.398
			c-0.613-0.51-0.186-1.944-1.339-1.978C7.703,72.984,7.204,73.217,7.389,74.036z M4.267,70.482
			c1.655-0.839,3.565,0.873,4.459-0.787c-2.211-0.43-2.119-1.63-1.785-3.554c-0.836,0.079-0.982-0.445-1.781-0.396
			C4.397,66.896,4.117,68.491,4.267,70.482z M3.376,81.539c1.635-1.233,2.043-6.135,2.227-9.872
			c-0.556-0.016-0.611-0.509-1.337-0.393C4.192,74.893,3.395,77.854,3.376,81.539z M1.148,81.145
			c0.595-1.497,1.523-4.014-0.892-4.345c-0.503,1.137-0.798,2.455-0.893,3.952C0.219,80.669,0.35,81.192,1.148,81.145z
			 M2.485,73.639c-0.779-0.345-1.133-1.101-2.674-0.787c-0.261,0.938-0.633,1.809-0.448,3.159
			C1.779,76.439,1.889,74.825,2.485,73.639z M0.256,89.041c0.13-0.543-0.279-1.546-0.445-0.789
			C-0.301,88.797,0.088,89.801,0.256,89.041z"/>
		<path style="fill:#082737;" d="M79.159,61.006c0.854,2.137,0.281,5.545,0.444,8.293c-1.469,0.116-3.64,0.906-4.902,0
			C74.718,65.382,73.439,58.585,79.159,61.006z"/>
		<path style="fill:#082737;" d="M50.628,42.051c-1.709,1.943-7.541,0.644-12.035,0.792c-1.542,0.048-2.768,0.903-4.013,0
			c0.984-2.75,5.74-2.074,8.916-1.978C45.78,40.947,48.808,41.033,50.628,42.051z"/>
		<path style="fill:#082737;" d="M36.81,45.605c0.778-2.168,10.565-2.911,10.254,0C44.017,46.593,38.982,45.574,36.81,45.605z"/>
		<path style="fill:#082737;" d="M27.003,89.834c-1.802,0.591-2.154,0.016-4.013,0.393C23.065,88.317,26.648,87.955,27.003,89.834z"
			/>
		<path style="fill:#082737;" d="M24.775,84.697c1.486-0.491,1.097,2.667,0.444,2.765C23.733,87.955,24.143,84.798,24.775,84.697z"
			/>
		<path style="fill:#082737;" d="M6.498,29.021c0.557,0.82,2.692,0.246,3.119,1.184c-0.558,1.729-4.661,0.346-6.688,0.789
			c-1.522-1.694-1.67-6.664,2.674-5.53C6.961,26.519,5.81,27.967,6.498,29.021z"/>
	</g>
</g>
<g id="Layer_3">
</g>
</svg>
