<?xml version="1.0" encoding="utf-8"?>
<!-- Generator: Adobe Illustrator 16.0.0, SVG Export Plug-In . SVG Version: 6.00 Build 0)  -->
<!DOCTYPE svg PUBLIC "-//W3C//DTD SVG 1.1//EN" "http://www.w3.org/Graphics/SVG/1.1/DTD/svg11.dtd">
<svg version="1.1" id="Layer_6" xmlns="http://www.w3.org/2000/svg" xmlns:xlink="http://www.w3.org/1999/xlink" x="0px" y="0px"
	 width="35px" height="35px" viewBox="0 0 100 100" enable-background="new 0 0 100 100" xml:space="preserve">
<path fill-rule="evenodd" clip-rule="evenodd" style="fill:#082737;" d="M50,1.125C23.008,1.125,1.125,23.007,1.125,50S23.008,98.875,50,98.875
	S98.875,76.993,98.875,50S76.992,1.125,50,1.125z M74.792,55.286c2.278,2.225,4.688,4.319,6.734,6.774
	c0.905,1.087,1.759,2.21,2.41,3.472c0.927,1.801,0.089,3.777-1.523,3.883l-10.012-0.002c-2.586,0.214-4.644-0.829-6.379-2.597
	c-1.385-1.409-2.671-2.913-4.004-4.371c-0.545-0.597-1.12-1.161-1.803-1.604c-1.366-0.888-2.551-0.616-3.333,0.809
	c-0.797,1.451-0.979,3.059-1.055,4.674c-0.109,2.361-0.821,2.978-3.19,3.089c-5.062,0.237-9.865-0.531-14.329-3.083
	c-3.938-2.251-6.986-5.428-9.642-9.026c-5.172-7.011-9.133-14.708-12.692-22.625c-0.801-1.783-0.215-2.737,1.752-2.774
	c3.268-0.063,6.536-0.055,9.804-0.003c1.33,0.021,2.21,0.782,2.721,2.037c1.766,4.345,3.931,8.479,6.644,12.313
	c0.723,1.021,1.461,2.039,2.512,2.76c1.16,0.797,2.044,0.533,2.591-0.762c0.35-0.823,0.501-1.703,0.577-2.585
	c0.26-3.021,0.291-6.041-0.159-9.05c-0.28-1.883-1.339-3.099-3.216-3.455c-0.956-0.181-0.816-0.535-0.351-1.081
	c0.807-0.944,1.563-1.528,3.074-1.528l11.314-0.002c1.783,0.35,2.182,1.15,2.424,2.946l0.01,12.572
	c-0.02,0.695,0.348,2.755,1.597,3.211c1,0.33,1.66-0.473,2.258-1.106c2.712-2.879,4.646-6.277,6.376-9.794
	c0.764-1.551,1.423-3.156,2.064-4.764c0.475-1.189,1.216-1.774,2.558-1.754l10.893,0.013c0.322,0,0.648,0.003,0.965,0.058
	c1.836,0.314,2.338,1.104,1.771,2.895c-0.894,2.814-2.632,5.158-4.33,7.508c-1.82,2.516-3.76,4.944-5.563,7.471
	C72.605,52.117,72.736,53.28,74.792,55.286z"/>
</svg>
